<svg width="568" height="494" viewBox="0 0 568 494" fill="none" xmlns="http://www.w3.org/2000/svg">
<rect x="447.238" y="445.928" width="74.5745" height="54.9497" rx="9.53208" transform="rotate(-31 447.238 445.928)" fill="#D5EDF9"/>
<rect x="77.5247" y="434.69" width="74.5745" height="54.9497" rx="9.53208" transform="rotate(-31 77.5247 434.69)" fill="#CCE7F9"/>
<path fill-rule="evenodd" clip-rule="evenodd" d="M491.743 222.041L491.727 191.116L511.815 187.212C514.559 186.678 517.214 188.477 517.736 191.223L544.068 329.784C544.589 332.523 542.789 335.165 540.05 335.684L491.743 344.837L491.743 222.041Z" fill="#B4E0FB"/>
<rect x="36.4462" y="114.385" width="454.736" height="280.916" rx="14.5785" fill="white"/>
<path d="M140.738 156.999C140.738 139.657 154.797 125.599 172.138 125.599H449.69C467.032 125.599 481.09 139.657 481.09 156.999V357.173H140.738V156.999Z" fill="white" stroke="#DCD8D8" stroke-width="0.560711"/>
<path fill-rule="evenodd" clip-rule="evenodd" d="M36.4462 170.456H129.524V327.455C129.524 327.455 124.478 331.941 124.478 338.109C124.478 344.276 124.478 395.301 124.478 395.301H53.8282C44.2284 395.301 36.4462 387.519 36.4462 377.919V170.456Z" fill="#618CC1"/>
<path d="M234.938 132.328H307.83C310.308 132.328 312.316 134.336 312.316 136.813C312.316 139.291 310.308 141.299 307.83 141.299H234.938V132.328Z" fill="#969696"/>
<path d="M41.4926 183.352C41.4926 179.327 44.7561 176.063 48.7818 176.063H116.628C120.963 176.063 124.478 179.578 124.478 183.913V208.024C124.478 212.359 120.963 215.874 116.628 215.874H49.3425C45.0071 215.874 41.4926 212.359 41.4926 208.024V183.352Z" fill="#58677B"/>
<path d="M41.4926 229.331C41.4926 225.305 44.7561 222.042 48.7818 222.042H116.628C120.963 222.042 124.478 225.556 124.478 229.891V379.041C124.478 383.376 120.963 386.89 116.628 386.89H49.3425C45.0071 386.89 41.4926 383.376 41.4926 379.041V229.331Z" fill="#58677B"/>
<rect x="140.738" y="151.953" width="340.351" height="237.181" rx="17.9427" fill="#F5F9FC"/>
<rect x="152.513" y="170.456" width="33.0819" height="11.2142" rx="5.32675" fill="#8E8F90"/>
<rect x="152.513" y="230.452" width="33.0819" height="11.2142" rx="5.32675" fill="#8E8F90"/>
<rect x="152.513" y="260.17" width="33.0819" height="11.2142" rx="5.32675" fill="#8E8F90"/>
<rect x="152.513" y="290.448" width="33.0819" height="11.2142" rx="5.32675" fill="#8E8F90"/>
<rect x="152.513" y="318.484" width="33.0819" height="11.2142" rx="5.32675" fill="#8E8F90"/>
<rect x="152.513" y="199.613" width="33.0819" height="11.2142" rx="5.32675" fill="#8E8F90"/>
<rect x="399.787" y="170.456" width="33.0819" height="11.2142" rx="5.32675" fill="#8ACFF8"/>
<rect x="435.112" y="170.456" width="33.0819" height="11.2142" rx="5.32675" fill="#A999F8"/>
<rect x="399.787" y="230.452" width="33.0819" height="11.2142" rx="5.32675" fill="#A999F8"/>
<rect x="399.787" y="260.17" width="33.0819" height="11.2142" rx="5.32675" fill="#70B9BD"/>
<rect x="435.112" y="260.17" width="33.0819" height="11.2142" rx="5.32675" fill="#8BA8F8"/>
<rect x="399.787" y="290.448" width="33.0819" height="11.2142" rx="5.32675" fill="#8BA8F8"/>
<rect x="435.112" y="290.448" width="33.0819" height="11.2142" rx="5.32675" fill="#A4E8EB"/>
<rect x="399.787" y="344.837" width="33.0819" height="11.2142" rx="5.32675" fill="#A999F8"/>
<rect x="435.112" y="344.837" width="33.0819" height="11.2142" rx="5.32675" fill="#A4E8EB"/>
<rect x="399.787" y="318.484" width="33.0819" height="11.2142" rx="5.32675" fill="#8ACFF8"/>
<rect x="399.787" y="199.613" width="33.0819" height="11.2142" rx="5.32675" fill="#A4E8EB"/>
<rect x="435.112" y="230.452" width="33.0819" height="11.2142" rx="5.32675" fill="#A4E8EB"/>
<rect x="193.445" y="170.456" width="33.0819" height="11.2142" rx="5.32675" fill="#E3E4E6"/>
<rect x="234.377" y="170.456" width="33.0819" height="11.2142" rx="5.32675" fill="#E3E4E6"/>
<rect x="277.552" y="170.456" width="33.0819" height="11.2142" rx="5.32675" fill="#E3E4E6"/>
<rect x="319.044" y="170.456" width="33.0819" height="11.2142" rx="5.32675" fill="#E3E4E6"/>
<rect x="358.294" y="170.456" width="33.0819" height="11.2142" rx="5.32675" fill="#E3E4E6"/>
<rect x="193.445" y="230.452" width="33.0819" height="11.2142" rx="5.32675" fill="#E3E4E6"/>
<rect x="234.377" y="230.452" width="33.0819" height="11.2142" rx="5.32675" fill="#E3E4E6"/>
<rect x="277.552" y="230.452" width="33.0819" height="11.2142" rx="5.32675" fill="#E3E4E6"/>
<rect x="319.044" y="230.452" width="33.0819" height="11.2142" rx="5.32675" fill="#E3E4E6"/>
<rect x="358.294" y="230.452" width="33.0819" height="11.2142" rx="5.32675" fill="#E3E4E6"/>
<rect x="193.445" y="260.17" width="33.0819" height="11.2142" rx="5.32675" fill="#E3E4E6"/>
<rect x="234.377" y="260.17" width="33.0819" height="11.2142" rx="5.32675" fill="#E3E4E6"/>
<rect x="277.552" y="260.17" width="33.0819" height="11.2142" rx="5.32675" fill="#E3E4E6"/>
<rect x="319.044" y="260.17" width="33.0819" height="11.2142" rx="5.32675" fill="#E3E4E6"/>
<rect x="358.294" y="260.17" width="33.0819" height="11.2142" rx="5.32675" fill="#E3E4E6"/>
<rect x="193.445" y="290.448" width="33.0819" height="11.2142" rx="5.32675" fill="#E3E4E6"/>
<rect x="234.377" y="290.448" width="33.0819" height="11.2142" rx="5.32675" fill="#E3E4E6"/>
<rect x="277.552" y="290.448" width="33.0819" height="11.2142" rx="5.32675" fill="#E3E4E6"/>
<rect x="319.044" y="290.448" width="33.0819" height="11.2142" rx="5.32675" fill="#E3E4E6"/>
<rect x="358.294" y="290.448" width="33.0819" height="11.2142" rx="5.32675" fill="#E3E4E6"/>
<rect x="319.044" y="344.837" width="33.0819" height="11.2142" rx="5.32675" fill="#E3E4E6"/>
<rect x="358.294" y="344.837" width="33.0819" height="11.2142" rx="5.32675" fill="#E3E4E6"/>
<rect x="193.445" y="318.484" width="33.0819" height="11.2142" rx="5.32675" fill="#E3E4E6"/>
<rect x="234.377" y="318.484" width="33.0819" height="11.2142" rx="5.32675" fill="#E3E4E6"/>
<rect x="277.552" y="318.484" width="33.0819" height="11.2142" rx="5.32675" fill="#E3E4E6"/>
<rect x="319.044" y="318.484" width="33.0819" height="11.2142" rx="5.32675" fill="#E3E4E6"/>
<rect x="358.294" y="318.484" width="33.0819" height="11.2142" rx="5.32675" fill="#E3E4E6"/>
<rect x="193.445" y="199.613" width="33.0819" height="11.2142" rx="5.32675" fill="#E3E4E6"/>
<rect x="234.377" y="199.613" width="33.0819" height="11.2142" rx="5.32675" fill="#E3E4E6"/>
<rect x="277.552" y="199.613" width="33.0819" height="11.2142" rx="5.32675" fill="#E3E4E6"/>
<rect x="319.044" y="199.613" width="33.0819" height="11.2142" rx="5.32675" fill="#E3E4E6"/>
<rect x="358.294" y="199.613" width="33.0819" height="11.2142" rx="5.32675" fill="#E3E4E6"/>
<rect x="124.478" y="324.091" width="194.567" height="126.721" rx="16.2606" fill="#F8F8F8"/>
<path opacity="0.751792" fill-rule="evenodd" clip-rule="evenodd" d="M153.423 389.663C153.554 386.9 155.129 384.411 157.57 383.11L185.175 368.387C186.555 367.651 188.096 367.266 189.66 367.266H229.979C231.75 367.266 233.481 367.79 234.955 368.772L257.372 383.717C258.845 384.699 260.519 385.336 262.271 385.581L287.645 389.133L292.45 390.415C294.666 391.006 296.372 392.778 296.877 395.016L299.362 406.021C299.679 407.424 298.612 408.758 297.174 408.758H276.43C276.43 408.758 276.43 404.833 273.627 401.469C271.074 398.405 266.661 397.666 265.892 397.559C265.814 397.548 265.739 397.541 265.66 397.538C264.963 397.517 261.262 397.574 257.927 400.908C254.228 404.607 254.563 408.758 254.563 408.758H194.567C194.567 408.758 193.221 404.543 192.324 403.151C189.87 399.342 186.83 398.105 183.913 398.105C181.648 398.105 178.049 398.93 176.063 401.469C174.557 403.394 172.699 408.758 172.699 408.758H159.57C155.728 408.758 152.666 405.547 152.849 401.71L153.423 389.663Z" fill="white" stroke="#7A7977" stroke-width="2.24284"/>
<path d="M189.801 392.778H193.986H195.968" stroke="#7A7977" stroke-width="2.24284" stroke-linecap="round" stroke-linejoin="bevel"/>
<path d="M152.513 392.778H159.742H163.167" stroke="#7A7977" stroke-width="2.24284" stroke-linecap="round" stroke-linejoin="bevel"/>
<path d="M223.163 392.778H227.348H229.331" stroke="#7A7977" stroke-width="2.24284" stroke-linecap="round" stroke-linejoin="bevel"/>
<path d="M287.084 398.385H293.933H297.177" stroke="#7A7977" stroke-width="2.24284" stroke-linecap="round" stroke-linejoin="bevel"/>
<path fill-rule="evenodd" clip-rule="evenodd" d="M163.167 381.283L177.745 373.433H187.338C187.788 373.433 188.055 373.938 187.801 374.31L180.656 384.79C180.238 385.402 179.544 385.769 178.803 385.769H157.428C156.853 385.769 156.651 385.007 157.15 384.721L163.167 381.283Z" stroke="#7A7977" stroke-width="2.24284"/>
<path fill-rule="evenodd" clip-rule="evenodd" d="M195.688 373.433H233.256L249.63 384.179C250.095 384.484 249.879 385.208 249.322 385.208H188.367C187.911 385.208 187.646 384.693 187.911 384.322L195.688 373.433Z" fill="white" stroke="#7A7977" stroke-width="2.24284"/>
<path d="M216.154 373.714L216.434 408.758" stroke="#7A7977" stroke-width="2.24284" stroke-linecap="square"/>
<circle cx="183.633" cy="408.478" r="3.64462" stroke="#999997" stroke-width="2.24284"/>
<circle cx="183.633" cy="408.478" r="10.3731" stroke="#999997" stroke-width="2.24284"/>
<circle cx="265.497" cy="408.478" r="3.64462" stroke="#999997" stroke-width="2.24284"/>
<circle cx="265.497" cy="408.478" r="10.3731" stroke="#999997" stroke-width="2.24284"/>
<circle opacity="0.785459" cx="175.783" cy="416.328" r="5.88746" fill="#F19D98"/>
<circle opacity="0.785459" cx="158.401" cy="401.188" r="5.88746" fill="#619E74"/>
<circle opacity="0.785459" cx="226.808" cy="388.853" r="5.88746" fill="#F19D98"/>
<circle opacity="0.785459" cx="275.029" cy="388.853" r="5.88746" fill="#619E74"/>
<circle opacity="0.785459" cx="257.086" cy="416.328" r="5.88746" fill="#619E74"/>
<rect x="268.58" y="350.444" width="33.0819" height="11.2142" rx="5.32675" fill="#DFDFDF"/>
<rect x="140.738" y="338.109" width="160.924" height="8.97137" rx="4.48569" fill="#A7BED9"/>
<rect x="140.738" y="430.065" width="160.924" height="8.97137" rx="4.48569" fill="#DFDFDF"/>
<rect y="42.614" width="236.059" height="127.842" rx="17.9427" fill="#FFFFFE"/>
<rect x="7.84995" y="47.0996" width="220.92" height="118.31" rx="17.9427" fill="#F0F9FE"/>
<circle cx="36.4462" cy="77.3781" r="5.60711" fill="#5E8AC3"/>
<circle cx="36.4462" cy="60.5568" r="5.60711" fill="#68A780"/>
<path d="M207.094 52.7068C215.252 52.7068 221.865 59.3199 221.865 67.4775C221.865 75.6351 215.252 82.2481 207.094 82.2481C198.937 82.2481 192.324 75.6351 192.324 67.4775C192.301 59.343 198.876 52.7301 207.01 52.7068C207.038 52.7068 207.066 52.7068 207.094 52.7068Z" fill="#3BB54A"/>
<path d="M215.277 63.4072L204.787 73.8977L198.912 68.065L201.304 65.7152L204.787 69.1561L212.885 61.0574L215.277 63.4072Z" fill="#D4E1F4"/>
<circle cx="22.9891" cy="77.3781" r="5.60711" fill="#F6E3A2"/>
<circle cx="22.9891" cy="60.5568" r="5.60711" fill="#EF9598"/>
<path fill-rule="evenodd" clip-rule="evenodd" d="M57.7532 128.963C57.7532 128.963 58.7888 132.803 61.1175 135.131C63.4461 137.46 66.7246 137.935 66.7246 137.935H74.0138V148.028C74.0138 150.195 72.2565 151.953 70.0888 151.953H61.6782C59.5105 151.953 57.7532 150.195 57.7532 148.028V140.738V128.963Z" fill="#9DA2A5"/>
<path fill-rule="evenodd" clip-rule="evenodd" d="M173.82 128.963C173.82 128.963 172.785 132.803 170.456 135.131C168.127 137.46 164.849 137.935 164.849 137.935H157.56V148.028C157.56 150.195 159.317 151.953 161.485 151.953H169.895C172.063 151.953 173.82 150.195 173.82 148.028V140.738V128.963Z" fill="#9DA2A5"/>
<path fill-rule="evenodd" clip-rule="evenodd" d="M90.2744 61.6781H141.299C141.299 61.6781 143.144 61.662 146.906 65.6031C150.668 69.5442 153.074 74.0138 153.074 74.0138L157.56 81.8637L160.363 87.4708H177.745C177.745 87.4708 177.785 92.1203 177.185 93.6386C175.908 96.8695 173.477 97.9688 172.699 98.1243C170.984 98.4673 168.774 98.685 168.774 98.685C168.774 98.685 170.715 98.8205 172.138 101.489C173.561 104.157 173.82 107.096 173.82 107.096V118.31V129.524C173.82 129.524 171.894 134.452 168.774 136.253C165.654 138.053 159.242 137.935 159.242 137.935H140.738H95.3208H67.846C67.846 137.935 64.3637 138.377 61.1175 135.131C57.8713 131.885 57.7532 128.403 57.7532 128.403V104.853C57.7532 104.853 58.1816 103.021 59.4353 101.489C60.6891 99.9562 62.7996 98.685 62.7996 98.685C62.7996 98.685 59.0678 98.4933 58.3139 98.1243C56.8878 97.4263 54.5489 95.8098 53.8282 92.5172C53.5348 91.1764 53.8282 87.4708 53.8282 87.4708H70.0889C70.0889 87.4708 70.6496 87.4708 71.2103 86.9101C71.771 86.3494 73.0171 83.2922 75.1353 79.6209C77.2534 75.9495 77.1369 75.7817 79.6209 72.3316C82.105 68.8816 83.39 67.5493 85.228 65.6031C87.0661 63.6569 90.2744 61.6781 90.2744 61.6781Z" fill="#E0E3E6"/>
<path fill-rule="evenodd" clip-rule="evenodd" d="M86.3494 105.974H144.663C144.663 105.974 146.391 108.763 145.224 113.264C144.057 117.764 140.738 121.114 140.738 121.114H91.3958C91.3958 121.114 87.8393 116.612 86.9102 113.824C85.981 111.037 86.3494 105.974 86.3494 105.974Z" fill="#F9FCFF"/>
<path fill-rule="evenodd" clip-rule="evenodd" d="M89.7137 65.0425H141.86C141.86 65.0425 147.996 72.8943 151.953 79.621C155.909 86.3476 158.12 93.6387 158.12 93.6387C158.12 93.6387 139.337 91.9566 117.189 91.9566C95.0405 91.9566 72.8924 93.6387 72.8924 93.6387C72.8924 93.6387 77.9628 81.9351 81.3031 76.2567C84.6433 70.5783 89.7137 65.0425 89.7137 65.0425Z" fill="#F9FCFF"/>
<rect x="79.0602" y="130.085" width="15.6999" height="3.36426" rx="1.68213" fill="#F9FCFF"/>
<rect x="136.813" y="130.085" width="15.6999" height="3.36426" rx="1.68213" fill="#F9FCFF"/>
<circle cx="94.1994" cy="118.31" r="5.60711" fill="#659E78"/>
<circle cx="135.692" cy="99.2458" r="5.60711" fill="#659E78"/>
<circle cx="153.074" cy="111.581" r="4.48569" fill="#F9FCFF"/>
<circle cx="78.4995" cy="111.581" r="4.48569" fill="#F9FCFF"/>
<circle cx="162.326" cy="111.301" r="3.08391" fill="#F9FCFF"/>
<circle cx="69.2478" cy="111.301" r="3.08391" fill="#F9FCFF"/>
<circle cx="171.577" cy="146.345" r="5.60711" fill="#4E8760"/>
<circle cx="62.2389" cy="145.785" r="5.60711" fill="#D47678"/>
<rect x="432.869" width="135.131" height="156.438" rx="15.6999" fill="white"/>
<rect x="451.372" y="17.3821" width="97.5637" height="8.97137" rx="4.48569" fill="#3D72B7"/>
<rect x="451.933" y="34.7642" width="52.7068" height="8.97137" rx="4.48569" fill="#E0E0E0"/>
<rect x="508.565" y="34.7642" width="40.3712" height="8.97137" rx="4.48569" fill="#E0E0E0"/>
<rect x="508.565" y="53.8281" width="40.3712" height="8.97137" rx="4.48569" fill="#EFEFEF"/>
<rect x="464.268" y="56.071" width="40.3712" height="5.0464" rx="2.5232" fill="#727272"/>
<rect x="464.268" y="71.771" width="40.3712" height="5.0464" rx="2.5232" fill="#727272"/>
<rect x="464.268" y="87.4709" width="40.3712" height="5.0464" rx="2.5232" fill="#727272"/>
<rect x="464.268" y="103.171" width="40.3712" height="5.0464" rx="2.5232" fill="#727272"/>
<rect x="464.268" y="118.871" width="40.3712" height="5.0464" rx="2.5232" fill="#727272"/>
<rect x="464.268" y="134.571" width="40.3712" height="5.0464" rx="2.5232" fill="#727272"/>
<rect x="508.565" y="69.5281" width="40.3712" height="8.97137" rx="4.48569" fill="#EFEFEF"/>
<rect x="508.565" y="85.228" width="40.3712" height="8.97137" rx="4.48569" fill="#EFEFEF"/>
<rect x="508.565" y="100.928" width="40.3712" height="8.97137" rx="4.48569" fill="#EFEFEF"/>
<rect x="508.565" y="116.628" width="40.3712" height="8.97137" rx="4.48569" fill="#EFEFEF"/>
<rect x="508.565" y="132.328" width="40.3712" height="8.97137" rx="4.48569" fill="#EFEFEF"/>
<circle cx="451.933" cy="136.813" r="5.60711" fill="#6CAA80"/>
<circle cx="451.933" cy="121.113" r="5.60711" fill="#6CAA80"/>
<circle cx="451.933" cy="105.414" r="5.60711" fill="#F09998"/>
<circle cx="451.933" cy="89.7138" r="5.60711" fill="#F09998"/>
<circle cx="451.933" cy="74.0138" r="5.60711" fill="#6CAA80"/>
<circle cx="451.933" cy="58.3139" r="5.60711" fill="#F09998"/>
</svg>
