<svg width="38" height="62" viewBox="0 0 38 62" fill="none" xmlns="http://www.w3.org/2000/svg">
<path d="M34.2855 7.23402L36.0625 8.9925L37.821 7.21551L36.044 5.45702L34.2855 7.23402ZM32.527 9.01101L30.75 7.25253V7.25253L32.527 9.01101ZM30.7315 3.71704L32.49 1.94004L30.713 0.181556L28.9545 1.95855L30.7315 3.71704ZM28.973 5.49404L27.196 3.73555V3.73555L28.973 5.49404ZM5.48222 29.2321L7.24071 31.0091L7.25001 30.9999L7.25922 30.9906L5.48222 29.2321ZM3.71451 30.9814L1.95602 29.2044L0.179025 30.9629L1.93751 32.7399L3.71451 30.9814ZM3.73283 30.9999L5.50983 32.7584L7.24999 30.9999L5.50983 29.2414L3.73283 30.9999ZM3.71451 31.0184L1.93751 29.2599L0.179025 31.0369L1.95602 32.7954L3.71451 31.0184ZM5.48222 32.7677L7.25922 31.0092L7.25001 30.9999L7.24071 30.9907L5.48222 32.7677ZM28.973 56.5057L27.196 58.2642V58.2642L28.973 56.5057ZM30.7315 58.2827L28.9545 60.0412L30.713 61.8182L32.49 60.0597L30.7315 58.2827ZM34.2855 54.7658L36.044 56.5428L37.821 54.7843L36.0625 53.0073L34.2855 54.7658ZM32.527 52.9888L34.304 51.2303L34.304 51.2303L32.527 52.9888ZM10.7672 30.9999L8.99016 29.2414L7.24999 30.9999L8.99016 32.7584L10.7672 30.9999ZM32.5085 5.47553L30.75 7.25253L34.304 10.7695L36.0625 8.9925L32.5085 5.47553ZM28.973 5.49404L32.527 9.01101L36.044 5.45702L32.49 1.94004L28.973 5.49404ZM30.75 7.25253L32.5085 5.47553L28.9545 1.95855L27.196 3.73555L30.75 7.25253ZM7.25922 30.9906L30.75 7.25253L27.196 3.73555L3.70523 27.4736L7.25922 30.9906ZM3.72374 27.4551L1.95602 29.2044L5.473 32.7584L7.24071 31.0091L3.72374 27.4551ZM1.93751 32.7399L1.95583 32.7584L5.50983 29.2414L5.49151 29.2229L1.93751 32.7399ZM5.49151 32.7769L5.50983 32.7584L1.95583 29.2414L1.93751 29.2599L5.49151 32.7769ZM7.24071 30.9907L5.473 29.2414L1.95602 32.7954L3.72374 34.5447L7.24071 30.9907ZM3.70523 34.5262L27.196 58.2642L30.75 54.7473L7.25922 31.0092L3.70523 34.5262ZM27.196 58.2642L28.9545 60.0412L32.5085 56.5243L30.75 54.7473L27.196 58.2642ZM32.49 60.0597L36.044 56.5428L32.527 52.9888L28.973 56.5057L32.49 60.0597ZM36.0625 53.0073L34.304 51.2303L30.75 54.7473L32.5085 56.5243L36.0625 53.0073ZM34.304 51.2303L12.5442 29.2414L8.99016 32.7584L30.75 54.7473L34.304 51.2303ZM30.75 7.25253L8.99016 29.2414L12.5442 32.7584L34.304 10.7695L30.75 7.25253Z" fill="#AFC6E9"/>
</svg>
