<svg width="37" height="37" viewBox="0 0 37 37" fill="none" xmlns="http://www.w3.org/2000/svg">
<path fill-rule="evenodd" clip-rule="evenodd" d="M3.34695 0H33.653C35.5015 0 37 1.4985 37 3.34695V33.653C37 35.5015 35.5015 37 33.653 37H3.34695C1.4985 37 0 35.5015 0 33.653V3.34695C0 1.4985 1.4985 0 3.34695 0ZM10.4754 32.9223C11.0133 32.9223 11.4494 32.4862 11.4494 31.9482V14.5678C11.4494 14.0299 11.0133 13.5938 10.4754 13.5938H6.32923C5.79128 13.5938 5.35522 14.0299 5.35522 14.5678V31.9482C5.35522 32.4862 5.79128 32.9223 6.32923 32.9223H10.4754ZM8.40229 11.9555C6.22694 11.9555 4.46344 10.192 4.46344 8.0166C4.46344 5.84125 6.22694 4.07775 8.40229 4.07775C10.5776 4.07775 12.3411 5.84125 12.3411 8.0166C12.3411 10.192 10.5777 11.9555 8.40229 11.9555ZM32.2214 32.9223C32.7159 32.9223 33.1169 32.5213 33.1169 32.0267V23.6149V23.5528C33.1172 19.8831 33.1176 13.3022 26.0336 13.3022C22.8164 13.3022 21.3054 14.4799 20.2887 16.0057V14.4894C20.2887 13.9948 19.8877 13.5938 19.3931 13.5938H15.0901C14.5955 13.5938 14.1945 13.9948 14.1945 14.4894V32.0267C14.1945 32.5213 14.5955 32.9223 15.0901 32.9223H19.3931C19.8878 32.9223 20.2887 32.5213 20.2887 32.0267V22.6238C20.4004 21.3603 20.9565 18.545 23.6985 18.545C26.973 18.545 26.9082 22.0745 26.8808 23.5612C26.8787 23.6794 26.8767 23.7847 26.8767 23.8743V32.0267C26.8767 32.5213 27.2777 32.9223 27.7723 32.9223H32.2214Z" fill="#0077B7"/>
</svg>
