<svg width="149" height="35" viewBox="0 0 149 35" fill="none" xmlns="http://www.w3.org/2000/svg">
<path d="M32.1016 8.20312L41.7867 11.6102L37.5047 20.8086L21.6891 20.1852L27.3437 9.18203L32.1016 8.20312Z" fill="#BBCCEB"/>
<path d="M0 18.6211L14.5688 1.94687L23.1711 0L32.1016 5.84609V8.20312L23.4445 17.5L20.3164 24.9977L14.6234 35L0 18.6211Z" fill="#BBCCEB"/>
<path d="M23.1711 0L21.1641 0.453906L25.0305 15.7664L25.9164 14.8367L32.1016 7.36094V5.84609L23.1711 0Z" fill="#95BAFD"/>
<path d="M27.7812 7.57959L30.2039 6.2124V8.52568L27.7812 7.57959Z" fill="#0E3889"/>
<path d="M25.3039 15.4711L32.1016 8.20312V5.85156L25.3039 15.4711Z" fill="#2D6EFC"/>
<path d="M0 18.621L9.65234 29.4273L19.5727 21.4265L18.725 1.00073L14.5688 1.94683L0 18.621Z" fill="#2D6EFC"/>
<path d="M41.7867 11.6267L37.6687 10.1665L40.0695 15.3126L41.7867 11.6267Z" fill="#0E3889"/>
<path d="M27.0922 22.318L22.5586 26.3648C22.5586 26.3648 21.5961 25.9055 20.1906 25.2164C16.5375 23.3734 9.95859 19.7859 9.76171 17.7461C9.50468 14.9187 14.4977 2.14922 14.5687 1.96875L21.3664 0.4375L25.3039 15.4656L27.0922 22.318Z" fill="#194BB1"/>
<path d="M112.722 22.8103H110.119V18.3642H105.941V22.8103H103.321V12.354H105.924V16.3243H110.119V12.354H112.722V22.8103Z" fill="#0E3889"/>
<path fill-rule="evenodd" clip-rule="evenodd" d="M75.4688 22.8102H78.132C78.1199 22.7692 78.1125 22.727 78.1102 22.6844C77.4867 20.9809 76.8592 19.2773 76.2316 17.5738C75.6041 15.8703 74.9766 14.1668 74.3531 12.4633C74.3272 12.3788 74.2438 12.3256 74.1562 12.3375H71.2797C71.1539 12.3156 71.0992 12.3703 71.0609 12.4797C70.6444 13.6128 70.2258 14.746 69.8066 15.8808C69.0262 17.9936 68.2436 20.1122 67.468 22.2469C67.4297 22.3371 67.3982 22.4287 67.3668 22.5203C67.3354 22.6119 67.3039 22.7035 67.2656 22.7938H69.9344C69.9414 22.7763 69.9495 22.7605 69.9573 22.7453C69.9739 22.7129 69.9891 22.6833 69.9891 22.6461C70.1698 22.0905 70.3505 21.5199 70.5281 20.9591C70.5655 20.841 70.6027 20.7233 70.6398 20.6063C70.6781 20.4969 70.7164 20.4586 70.8422 20.4586H74.5609C74.6564 20.4482 74.7441 20.5122 74.7633 20.6063C74.8734 20.9967 74.9978 21.3791 75.1228 21.7632C75.2026 22.0085 75.2826 22.2546 75.3594 22.5039C75.3708 22.5367 75.3818 22.5694 75.3926 22.6016C75.4178 22.6768 75.4419 22.7489 75.4688 22.8102ZM72.3058 15.4065C72.4341 15.011 72.5624 14.6155 72.6906 14.2188C73.1609 15.668 73.6312 17.1281 74.0852 18.5938H71.2797C71.6217 17.5159 71.9638 16.4612 72.3058 15.4065Z" fill="#0E3889"/>
<path fill-rule="evenodd" clip-rule="evenodd" d="M146.295 12.354V15.7228C146.266 15.7061 146.23 15.7061 146.202 15.7228C145.425 15.0083 144.356 14.7034 143.319 14.9006C142.283 15.0978 141.401 15.7738 140.941 16.7235C140.411 17.965 140.336 19.3531 140.727 20.6446C140.947 21.5489 141.564 22.3049 142.406 22.7009C143.112 23.0262 143.896 23.1402 144.665 23.029C145.387 22.9516 146.044 22.5746 146.475 21.9899C146.475 21.9735 146.524 21.9353 146.524 21.9353C146.55 22.0274 146.577 22.1177 146.604 22.2066C146.656 22.3814 146.707 22.5505 146.743 22.7173C146.759 22.8267 146.798 22.8267 146.891 22.8267H148.75V12.354H146.295ZM145.824 17.3251C146.065 17.8121 146.182 18.3514 146.163 18.8946C146.183 19.3934 146.091 19.8903 145.895 20.3493C145.699 20.89 145.185 21.2501 144.61 21.2501C144.035 21.2501 143.521 20.89 143.325 20.3493C143.13 19.7955 143.057 19.2059 143.112 18.6212C143.115 18.1857 143.214 17.7563 143.402 17.3634C143.614 16.8962 144.08 16.5967 144.594 16.5978C145.114 16.5672 145.6 16.8548 145.824 17.3251Z" fill="#0E3889"/>
<path fill-rule="evenodd" clip-rule="evenodd" d="M100.171 15.2688C99.5058 14.9723 98.7883 14.8105 98.0602 14.793C97.9282 14.8095 97.7952 14.8245 97.6635 14.8393C97.3586 14.8737 97.0604 14.9074 96.7969 14.957C95.5675 15.1764 94.5471 16.0322 94.1172 17.2047C93.7989 18.0396 93.7194 18.9467 93.8875 19.8242C94.0302 21.1055 94.8732 22.2013 96.075 22.668C97.2928 23.1889 98.6654 23.2163 99.9031 22.7445C100.983 22.3692 101.804 21.4784 102.091 20.3711C102.302 19.6619 102.35 18.9142 102.233 18.1836C102.121 16.9115 101.333 15.7979 100.171 15.2688ZM96.4803 19.2686C96.4725 19.1553 96.4648 19.0429 96.4523 18.9328C96.444 18.4543 96.5218 17.9783 96.682 17.5273C96.8797 16.9502 97.4283 16.5674 98.0383 16.5813C98.6565 16.5383 99.2247 16.9216 99.4164 17.5109C99.5235 17.8302 99.595 18.1603 99.6297 18.4953C99.7181 19.1273 99.6505 19.7713 99.4328 20.3711C99.2655 20.8062 98.9038 21.1376 98.4558 21.2666C98.0079 21.3955 97.5254 21.3069 97.1523 21.0273C96.7988 20.7217 96.579 20.2899 96.5398 19.8242C96.5059 19.641 96.493 19.4537 96.4803 19.2686Z" fill="#0E3889"/>
<path fill-rule="evenodd" clip-rule="evenodd" d="M121.931 20.9179C122.216 20.2948 122.365 19.618 122.369 18.9328C122.354 18.8115 122.342 18.6877 122.33 18.5614C122.312 18.3632 122.293 18.1589 122.259 17.9484C122.06 16.6391 121.156 15.5459 119.908 15.1047C118.756 14.6972 117.499 14.6972 116.348 15.1047C115.204 15.4713 114.33 16.4013 114.034 17.5656C113.826 18.3003 113.789 19.0728 113.925 19.8242C114.086 21.1499 114.981 22.2714 116.238 22.7226C117.388 23.1669 118.658 23.1863 119.82 22.7773C120.759 22.4905 121.528 21.8128 121.931 20.9179ZM116.566 19.6601C116.512 19.425 116.512 19.1679 116.512 18.9328C116.496 18.4374 116.595 17.9452 116.802 17.4945C117.002 16.9216 117.551 16.5451 118.158 16.5648C118.769 16.5302 119.326 16.9122 119.514 17.4945C119.625 17.8187 119.698 18.1545 119.733 18.4953C119.806 19.129 119.731 19.7711 119.514 20.3711C119.339 20.8345 118.944 21.1793 118.461 21.2894C117.978 21.3994 117.472 21.2599 117.113 20.9179C116.794 20.5729 116.601 20.1293 116.566 19.6601Z" fill="#0E3889"/>
<path d="M140.175 22.8101H137.588V18.4351C137.585 18.1486 137.537 17.8644 137.446 17.5929C137.223 17.0554 136.694 16.7082 136.112 16.7167C135.53 16.7251 135.012 17.0874 134.805 17.6312C134.714 17.8953 134.666 18.1722 134.662 18.4515C134.662 19.8351 134.662 21.2187 134.662 22.6023V22.8046H132.076V15.0663H134.137C134.209 15.3562 134.263 15.6679 134.334 15.996L134.405 15.9249C135.093 15.1488 136.107 14.7433 137.14 14.8312C137.841 14.8247 138.522 15.069 139.059 15.5202C139.62 16.0168 139.99 16.6939 140.104 17.4343C140.162 17.7593 140.193 18.0885 140.197 18.4187C140.197 19.8405 140.197 21.246 140.197 22.6624L140.175 22.8101Z" fill="#0E3889"/>
<path d="M78.4711 15.0664H81.0524V19.5672C81.0527 19.8388 81.0895 20.1092 81.1617 20.3711C81.297 20.8698 81.7393 21.2236 82.2555 21.2461C82.7853 21.3263 83.3114 21.0805 83.5899 20.6227C83.7801 20.3183 83.8753 19.9642 83.8633 19.6055V15.0664H86.4063V22.7937H84.3445C84.2734 22.482 84.2188 22.1758 84.1477 21.8477C84.119 21.8584 84.0943 21.8774 84.0766 21.9023C83.3682 22.7476 82.2771 23.1725 81.1836 23.0289C80.5721 23.0098 79.9824 22.7972 79.4992 22.4219C78.9821 21.9642 78.6479 21.3348 78.5586 20.65C78.4962 20.2592 78.4614 19.8645 78.4547 19.4688C78.4547 18.0633 78.4547 16.6414 78.4547 15.2414C78.45 15.1826 78.4555 15.1233 78.4711 15.0664V15.0664Z" fill="#0E3889"/>
<path d="M123.211 15.0664H125.781V19.5891C125.78 19.8536 125.817 20.1169 125.891 20.3711C126.024 20.8708 126.468 21.2254 126.984 21.2461C127.509 21.3248 128.031 21.0895 128.319 20.6445C128.509 20.3382 128.604 19.9823 128.592 19.6219V15.1047H131.157V22.832H129.101C129.024 22.5203 128.975 22.2086 128.898 21.8805L128.827 21.9352C128.121 22.7842 127.029 23.2116 125.934 23.0672C125.314 23.0406 124.72 22.8142 124.239 22.4219C123.721 21.9682 123.388 21.3393 123.304 20.6555C123.24 20.2648 123.203 19.8701 123.195 19.4742C123.195 18.0688 123.195 16.6469 123.195 15.2469C123.207 15.1875 123.212 15.127 123.211 15.0664Z" fill="#0E3889"/>
<path d="M90.918 16.6523V20.4039C90.9074 20.6342 90.9924 20.8588 91.1528 21.0244C91.3133 21.19 91.535 21.2821 91.7656 21.2789C92.0619 21.2826 92.358 21.2643 92.6516 21.2242C92.7073 21.2196 92.7624 21.2086 92.8156 21.1914C92.8703 21.6835 92.925 22.1539 92.9797 22.6078C92.9665 22.6617 92.9332 22.7087 92.8867 22.739C92.6277 22.8299 92.3627 22.903 92.0937 22.9578C91.4821 23.0653 90.8549 23.0467 90.2508 22.9031C89.0952 22.6306 88.2977 21.5734 88.3531 20.3875V16.6523H87.1773V15.05H87.5766C87.7205 15.0581 87.8647 15.0581 88.0086 15.05C88.3609 15.0271 88.666 14.7972 88.7852 14.4648C88.9125 14.0812 88.9861 13.6819 89.0039 13.2781C89.0039 13.1906 89.0039 13.0976 89.0039 13.0046H90.9016V15.0664H93.018V16.6687L90.918 16.6523Z" fill="#0E3889"/>
<path fill-rule="evenodd" clip-rule="evenodd" d="M51.2094 15.2523L53.2437 22.4219H55.7812L57.8047 15.2523H57.8648C57.8545 15.4575 57.8447 15.6483 57.8357 15.8248C57.797 16.5795 57.7719 17.0706 57.7719 17.2922V18.0469V22.4219H60.2437V12.4688H56.6562L54.6328 19.5344H54.5781L52.5 12.4688H48.907V22.4219H51.2914V18.0961C51.2914 17.4398 51.2422 16.4719 51.1492 15.2523H51.2094ZM63.5086 14.7055H60.7031L63.7492 22.3125C63.6455 22.5998 63.5039 22.872 63.3281 23.1219C63.2043 23.2846 63.0454 23.4173 62.8633 23.5102C62.6717 23.6059 62.4594 23.6528 62.2453 23.6469C61.9679 23.6503 61.6909 23.6228 61.4195 23.5648V25.6266C61.7787 25.7063 62.1454 25.7466 62.5133 25.7469C63.3086 25.7831 64.0934 25.5542 64.7445 25.0961C65.4173 24.5142 65.9153 23.7569 66.1828 22.9086L69.2344 14.7055H66.5L65.1602 19.1461C65.082 19.4162 65.0271 19.6924 64.9961 19.9719H64.9414C64.9257 19.6897 64.8836 19.4095 64.8156 19.1352L63.5086 14.7055Z" fill="#0E3889"/>
</svg>
