<svg width="38" height="62" viewBox="0 0 38 62" fill="none" xmlns="http://www.w3.org/2000/svg">
<path d="M3.71455 7.23402L1.93755 8.9925L0.179066 7.21551L1.95606 5.45702L3.71455 7.23402ZM5.47304 9.01101L7.25004 7.25253V7.25253L5.47304 9.01101ZM7.26855 3.71704L5.51006 1.94004L7.28706 0.181556L9.04555 1.95855L7.26855 3.71704ZM9.02703 5.49404L10.804 3.73555V3.73555L9.02703 5.49404ZM32.5178 29.2321L30.7593 31.0091L30.75 30.9999L30.7408 30.9906L32.5178 29.2321ZM34.2855 30.9814L36.044 29.2044L37.821 30.9629L36.0625 32.7399L34.2855 30.9814ZM34.2672 30.9999L32.4902 32.7584L30.75 30.9999L32.4902 29.2414L34.2672 30.9999ZM34.2855 31.0184L36.0625 29.2599L37.821 31.0369L36.044 32.7954L34.2855 31.0184ZM32.5178 32.7677L30.7408 31.0092L30.75 30.9999L30.7593 30.9907L32.5178 32.7677ZM9.02703 56.5057L10.804 58.2642V58.2642L9.02703 56.5057ZM7.26855 58.2827L9.04555 60.0412L7.28706 61.8182L5.51006 60.0597L7.26855 58.2827ZM3.71455 54.7658L1.95607 56.5428L0.179066 54.7843L1.93755 53.0073L3.71455 54.7658ZM5.47304 52.9888L3.69604 51.2303L3.69604 51.2303L5.47304 52.9888ZM27.2329 30.9999L29.0099 29.2414L30.75 30.9999L29.0099 32.7584L27.2329 30.9999ZM5.49155 5.47553L7.25004 7.25253L3.69604 10.7695L1.93755 8.9925L5.49155 5.47553ZM9.02703 5.49404L5.47304 9.01101L1.95606 5.45702L5.51006 1.94004L9.02703 5.49404ZM7.25004 7.25253L5.49155 5.47553L9.04555 1.95855L10.804 3.73555L7.25004 7.25253ZM30.7408 30.9906L7.25004 7.25253L10.804 3.73555L34.2948 27.4736L30.7408 30.9906ZM34.2763 27.4551L36.044 29.2044L32.527 32.7584L30.7593 31.0091L34.2763 27.4551ZM36.0625 32.7399L36.0442 32.7584L32.4902 29.2414L32.5085 29.2229L36.0625 32.7399ZM32.5085 32.7769L32.4902 32.7584L36.0442 29.2414L36.0625 29.2599L32.5085 32.7769ZM30.7593 30.9907L32.527 29.2414L36.044 32.7954L34.2763 34.5447L30.7593 30.9907ZM34.2948 34.5262L10.804 58.2642L7.25004 54.7473L30.7408 31.0092L34.2948 34.5262ZM10.804 58.2642L9.04555 60.0412L5.49155 56.5243L7.25004 54.7473L10.804 58.2642ZM5.51006 60.0597L1.95607 56.5428L5.47304 52.9888L9.02703 56.5057L5.51006 60.0597ZM1.93755 53.0073L3.69604 51.2303L7.25004 54.7473L5.49155 56.5243L1.93755 53.0073ZM3.69604 51.2303L25.4559 29.2414L29.0099 32.7584L7.25004 54.7473L3.69604 51.2303ZM7.25004 7.25253L29.0099 29.2414L25.4559 32.7584L3.69604 10.7695L7.25004 7.25253Z" fill="#AFC6E9"/>
</svg>
