<svg width="561" height="495" viewBox="0 0 561 495" fill="none" xmlns="http://www.w3.org/2000/svg">
<rect y="42.3707" width="206.645" height="413.807" rx="20.1479" fill="#194BB1"/>
<rect x="12.4667" y="76.351" width="188.558" height="335.042" fill="white"/>
<rect x="72.8425" y="57.3525" width="54.2444" height="8.26581" rx="4.13291" fill="#A6A6A6"/>
<rect x="28.9304" y="93.5155" width="151.368" height="11.8821" rx="5.94105" fill="#737373"/>
<rect x="28.9304" y="109.531" width="151.368" height="11.3655" rx="5.68275" fill="#737373"/>
<rect x="28.9304" y="132.778" width="76.4588" height="11.8821" rx="5.94105" fill="#404040"/>
<rect x="29.447" y="150.343" width="76.4588" height="11.8821" rx="5.94105" fill="#404040"/>
<rect x="28.4137" y="248.5" width="152.918" height="11.8821" rx="5.94105" fill="#737373"/>
<rect x="28.4137" y="370.42" width="152.918" height="11.8821" rx="5.94105" fill="#737373"/>
<rect x="28.9304" y="264.515" width="152.918" height="11.8821" rx="5.94105" fill="#737373"/>
<rect x="28.9304" y="388.502" width="152.918" height="11.8821" rx="5.94105" fill="#737373"/>
<rect x="29.447" y="285.179" width="76.9754" height="11.8821" rx="5.94105" fill="#404040"/>
<rect x="29.447" y="301.711" width="76.9754" height="11.8821" rx="5.94105" fill="#404040"/>
<rect x="107.972" y="285.179" width="76.9754" height="11.8821" rx="5.94105" fill="#008037"/>
<rect x="107.972" y="301.711" width="76.9754" height="11.8821" rx="5.94105" fill="#008037"/>
<rect x="27.8971" y="168.941" width="76.4588" height="23.2476" rx="11.6238" fill="#5CE1E6"/>
<rect x="28.9304" y="196.322" width="138.969" height="23.7642" rx="11.6238" fill="#38B6FF"/>
<rect x="29.447" y="319.792" width="138.969" height="23.7642" rx="11.6238" fill="#5CE1E6"/>
<rect x="106.422" y="168.941" width="76.4588" height="23.2476" rx="11.6238" fill="#03989E"/>
<rect x="107.456" y="132.778" width="76.4588" height="11.8821" rx="5.94105" fill="#E73E3E"/>
<rect x="107.972" y="150.343" width="76.4588" height="11.8821" rx="5.94105" fill="#404040"/>
<rect x="131.736" y="57.3525" width="8.26581" height="8.26581" rx="4.13291" fill="#A6A6A6"/>
<rect x="12.3987" y="230.418" width="163.25" height="7.23259" fill="#C7D7ED"/>
<rect x="12.3987" y="352.339" width="163.25" height="7.23259" fill="#C7D7ED"/>
<circle cx="106.681" cy="432.156" r="14.2069" fill="#A6A6A6"/>
<g clip-path="url(#clip0)">
<rect x="149.301" y="249.533" width="392.11" height="244.875" rx="7.7492" fill="#404040"/>
<circle cx="203.546" cy="315.143" r="35.388" fill="white" stroke="#194BB1" stroke-width="2.58307"/>
<path d="M231.412 309.182L225.749 321.205L204.84 320.394L212.296 305.985L218.604 304.721L231.412 309.182Z" fill="#BBCCEB"/>
<path d="M195.425 296.514L206.799 293.961L218.603 301.619V304.72L207.157 316.839L203.023 326.691L195.496 339.787L176.165 318.342L195.425 296.514Z" fill="#BBCCEB"/>
<path d="M204.146 294.558L209.26 314.596L210.431 313.38L218.603 303.599V301.619L206.799 293.961L204.146 294.558Z" fill="#95BAFD"/>
<path d="M216.094 302.097V305.127L212.892 303.886L216.094 302.097Z" fill="#0E3889"/>
<path d="M218.603 304.722V301.621L209.618 314.217L218.603 304.722Z" fill="#2D6EFC"/>
<path d="M188.925 332.488L202.044 322.015L200.921 295.273L195.425 296.514L176.165 318.341L188.925 332.488Z" fill="#2D6EFC"/>
<path d="M225.963 307.272L229.141 314.023L231.411 309.18L225.963 307.272Z" fill="#0E3889"/>
<path d="M205.986 328.48C205.986 328.48 204.719 327.884 202.855 326.977C198.028 324.568 189.331 319.868 189.068 317.196C188.733 313.499 195.328 296.776 195.424 296.538L204.408 294.534L209.618 314.214L211.983 323.184L205.986 328.48Z" fill="#194BB1"/>
<path d="M263.8 306.046L258.169 291.335H258.079C258.185 292.5 258.238 293.885 258.238 295.489V306.046H256.455V289.45H259.361L264.617 303.14H264.708L270.009 289.45H272.892V306.046H270.962V295.353C270.962 294.127 271.015 292.795 271.121 291.357H271.031L265.355 306.046H263.8ZM276.246 293.605H278.266L280.991 300.7C281.589 302.319 281.959 303.488 282.103 304.207H282.194C282.292 303.821 282.497 303.163 282.807 302.232C283.125 301.294 284.154 298.418 285.895 293.605H287.915L282.569 307.772C282.039 309.172 281.418 310.163 280.707 310.746C280.003 311.336 279.137 311.631 278.108 311.631C277.532 311.631 276.965 311.567 276.405 311.438V309.928C276.821 310.019 277.286 310.065 277.801 310.065C279.095 310.065 280.018 309.338 280.571 307.885L281.263 306.114L276.246 293.605ZM301.701 306.046L299.635 300.768H292.983L290.94 306.046H288.987L295.548 289.382H297.172L303.699 306.046H301.701ZM299.033 299.031L297.103 293.889C296.854 293.238 296.596 292.44 296.332 291.494C296.165 292.22 295.927 293.019 295.616 293.889L293.664 299.031H299.033ZM308.517 293.605V301.676C308.517 302.69 308.747 303.447 309.209 303.946C309.671 304.446 310.393 304.695 311.377 304.695C312.679 304.695 313.628 304.34 314.226 303.628C314.832 302.917 315.134 301.755 315.134 300.143V293.605H317.019V306.046H315.464L315.191 304.377H315.089C314.703 304.99 314.166 305.46 313.477 305.785C312.796 306.11 312.017 306.273 311.139 306.273C309.625 306.273 308.49 305.914 307.733 305.195C306.984 304.476 306.61 303.326 306.61 301.744V293.605H308.517ZM326.094 304.718C326.427 304.718 326.748 304.695 327.058 304.65C327.369 304.597 327.615 304.544 327.796 304.491V305.933C327.592 306.031 327.289 306.11 326.888 306.171C326.495 306.239 326.139 306.273 325.821 306.273C323.415 306.273 322.211 305.006 322.211 302.47V295.069H320.429V294.161L322.211 293.378L323.006 290.722H324.096V293.605H327.705V295.069H324.096V302.391C324.096 303.14 324.274 303.715 324.629 304.116C324.985 304.517 325.473 304.718 326.094 304.718ZM342.081 299.814C342.081 301.842 341.571 303.428 340.549 304.57C339.527 305.706 338.116 306.273 336.315 306.273C335.202 306.273 334.215 306.012 333.352 305.49C332.489 304.968 331.823 304.219 331.354 303.242C330.885 302.266 330.651 301.123 330.651 299.814C330.651 297.786 331.158 296.208 332.172 295.081C333.186 293.946 334.593 293.378 336.394 293.378C338.135 293.378 339.516 293.957 340.538 295.115C341.567 296.273 342.081 297.839 342.081 299.814ZM332.603 299.814C332.603 301.403 332.921 302.614 333.556 303.447C334.192 304.279 335.127 304.695 336.36 304.695C337.594 304.695 338.528 304.283 339.164 303.458C339.807 302.626 340.129 301.411 340.129 299.814C340.129 298.233 339.807 297.033 339.164 296.216C338.528 295.391 337.586 294.979 336.338 294.979C335.104 294.979 334.173 295.383 333.545 296.193C332.917 297.003 332.603 298.21 332.603 299.814ZM359.329 306.046H357.399V298.236H348.659V306.046H346.729V289.45H348.659V296.511H357.399V289.45H359.329V306.046ZM375.396 299.814C375.396 301.842 374.886 303.428 373.864 304.57C372.842 305.706 371.431 306.273 369.63 306.273C368.517 306.273 367.53 306.012 366.667 305.49C365.804 304.968 365.138 304.219 364.669 303.242C364.2 302.266 363.966 301.123 363.966 299.814C363.966 297.786 364.473 296.208 365.487 295.081C366.501 293.946 367.908 293.378 369.709 293.378C371.45 293.378 372.831 293.957 373.853 295.115C374.882 296.273 375.396 297.839 375.396 299.814ZM365.918 299.814C365.918 301.403 366.236 302.614 366.871 303.447C367.507 304.279 368.442 304.695 369.675 304.695C370.909 304.695 371.843 304.283 372.479 303.458C373.122 302.626 373.444 301.411 373.444 299.814C373.444 298.233 373.122 297.033 372.479 296.216C371.843 295.391 370.901 294.979 369.653 294.979C368.419 294.979 367.488 295.383 366.86 296.193C366.232 297.003 365.918 298.21 365.918 299.814ZM381.531 293.605V301.676C381.531 302.69 381.762 303.447 382.224 303.946C382.685 304.446 383.408 304.695 384.392 304.695C385.693 304.695 386.643 304.34 387.241 303.628C387.846 302.917 388.149 301.755 388.149 300.143V293.605H390.033V306.046H388.478L388.206 304.377H388.104C387.718 304.99 387.18 305.46 386.492 305.785C385.811 306.11 385.031 306.273 384.153 306.273C382.64 306.273 381.505 305.914 380.748 305.195C379.999 304.476 379.624 303.326 379.624 301.744V293.605H381.531ZM403.603 306.046V297.998C403.603 296.984 403.372 296.227 402.911 295.728C402.449 295.228 401.726 294.979 400.743 294.979C399.441 294.979 398.488 295.33 397.882 296.034C397.277 296.738 396.974 297.9 396.974 299.519V306.046H395.09V293.605H396.622L396.929 295.308H397.019C397.405 294.695 397.946 294.222 398.643 293.889C399.339 293.548 400.115 293.378 400.97 293.378C402.468 293.378 403.596 293.741 404.352 294.468C405.109 295.187 405.488 296.341 405.488 297.93V306.046H403.603ZM418.887 304.377H418.785C417.915 305.641 416.613 306.273 414.88 306.273C413.253 306.273 411.986 305.717 411.077 304.605C410.177 303.492 409.727 301.91 409.727 299.86C409.727 297.809 410.181 296.216 411.089 295.081C411.997 293.946 413.261 293.378 414.88 293.378C416.568 293.378 417.862 293.991 418.762 295.217H418.91L418.83 294.32L418.785 293.446V288.383H420.669V306.046H419.137L418.887 304.377ZM415.119 304.695C416.405 304.695 417.336 304.347 417.911 303.651C418.494 302.947 418.785 301.816 418.785 300.257V299.86C418.785 298.096 418.49 296.84 417.9 296.091C417.317 295.334 416.382 294.956 415.096 294.956C413.991 294.956 413.143 295.387 412.553 296.25C411.97 297.105 411.679 298.316 411.679 299.882C411.679 301.472 411.97 302.671 412.553 303.481C413.136 304.29 413.991 304.695 415.119 304.695ZM440.442 306.046L434.812 291.335H434.721C434.827 292.5 434.88 293.885 434.88 295.489V306.046H433.098V289.45H436.004L441.26 303.14H441.35L446.651 289.45H449.535V306.046H447.605V295.353C447.605 294.127 447.658 292.795 447.764 291.357H447.673L441.997 306.046H440.442ZM462.514 306.046L462.14 304.275H462.049C461.428 305.055 460.808 305.585 460.187 305.865C459.574 306.137 458.806 306.273 457.883 306.273C456.649 306.273 455.681 305.955 454.977 305.32C454.281 304.684 453.933 303.78 453.933 302.607C453.933 300.094 455.942 298.777 459.96 298.656L462.072 298.588V297.816C462.072 296.84 461.86 296.121 461.436 295.66C461.02 295.19 460.35 294.956 459.427 294.956C458.39 294.956 457.217 295.274 455.908 295.909L455.329 294.468C455.942 294.135 456.612 293.874 457.338 293.685C458.072 293.495 458.806 293.401 459.54 293.401C461.024 293.401 462.121 293.73 462.832 294.388C463.551 295.047 463.911 296.102 463.911 297.555V306.046H462.514ZM458.258 304.718C459.431 304.718 460.35 304.396 461.016 303.753C461.689 303.11 462.026 302.209 462.026 301.052V299.928L460.142 300.007C458.644 300.06 457.561 300.295 456.895 300.711C456.237 301.12 455.908 301.759 455.908 302.629C455.908 303.31 456.112 303.829 456.521 304.185C456.937 304.54 457.516 304.718 458.258 304.718ZM472.872 304.718C473.205 304.718 473.526 304.695 473.837 304.65C474.147 304.597 474.393 304.544 474.575 304.491V305.933C474.37 306.031 474.067 306.11 473.666 306.171C473.273 306.239 472.917 306.273 472.599 306.273C470.193 306.273 468.99 305.006 468.99 302.47V295.069H467.207V294.161L468.99 293.378L469.784 290.722H470.874V293.605H474.484V295.069H470.874V302.391C470.874 303.14 471.052 303.715 471.407 304.116C471.763 304.517 472.251 304.718 472.872 304.718ZM483.093 306.273C481.292 306.273 479.896 305.721 478.904 304.616C477.921 303.503 477.429 301.933 477.429 299.905C477.429 297.824 477.928 296.216 478.927 295.081C479.934 293.946 481.364 293.378 483.218 293.378C483.816 293.378 484.414 293.442 485.011 293.571C485.609 293.7 486.079 293.851 486.419 294.025L485.84 295.626C485.424 295.459 484.97 295.323 484.478 295.217C483.986 295.103 483.551 295.047 483.173 295.047C480.645 295.047 479.381 296.659 479.381 299.882C479.381 301.411 479.688 302.584 480.301 303.401C480.921 304.219 481.837 304.627 483.048 304.627C484.084 304.627 485.148 304.404 486.237 303.957V305.626C485.405 306.057 484.357 306.273 483.093 306.273ZM498.763 306.046V297.998C498.763 296.984 498.532 296.227 498.071 295.728C497.609 295.228 496.886 294.979 495.902 294.979C494.593 294.979 493.636 295.334 493.031 296.046C492.433 296.757 492.134 297.922 492.134 299.542V306.046H490.25V288.383H492.134V293.73C492.134 294.373 492.104 294.907 492.043 295.33H492.157C492.527 294.733 493.053 294.263 493.734 293.923C494.423 293.575 495.206 293.401 496.084 293.401C497.605 293.401 498.744 293.764 499.501 294.49C500.265 295.209 500.647 296.356 500.647 297.93V306.046H498.763ZM507.282 301.472H506.09L505.511 289.45H507.861L507.282 301.472ZM505.306 304.843C505.306 303.814 505.761 303.299 506.669 303.299C507.108 303.299 507.444 303.432 507.679 303.696C507.921 303.961 508.042 304.343 508.042 304.843C508.042 305.327 507.921 305.706 507.679 305.978C507.437 306.243 507.1 306.375 506.669 306.375C506.275 306.375 505.95 306.258 505.692 306.023C505.435 305.781 505.306 305.388 505.306 304.843Z" fill="white"/>
<path d="M266.218 336.01H255.309V334.386L259.679 329.993C261.011 328.646 261.889 327.685 262.313 327.11C262.737 326.535 263.054 325.975 263.266 325.43C263.478 324.885 263.584 324.299 263.584 323.671C263.584 322.785 263.315 322.085 262.778 321.571C262.241 321.049 261.495 320.788 260.542 320.788C259.853 320.788 259.199 320.901 258.578 321.128C257.965 321.355 257.28 321.768 256.524 322.365L255.525 321.083C257.053 319.811 258.718 319.176 260.519 319.176C262.078 319.176 263.3 319.577 264.186 320.379C265.071 321.173 265.514 322.244 265.514 323.591C265.514 324.643 265.219 325.684 264.628 326.713C264.038 327.742 262.933 329.044 261.314 330.618L257.681 334.171V334.262H266.218V336.01ZM280.507 327.689C280.507 330.557 280.053 332.699 279.144 334.114C278.244 335.529 276.863 336.237 275.001 336.237C273.215 336.237 271.857 335.514 270.926 334.069C269.995 332.616 269.53 330.489 269.53 327.689C269.53 324.798 269.98 322.653 270.881 321.253C271.781 319.853 273.155 319.153 275.001 319.153C276.802 319.153 278.168 319.883 279.099 321.344C280.037 322.804 280.507 324.919 280.507 327.689ZM271.437 327.689C271.437 330.103 271.721 331.863 272.288 332.968C272.856 334.065 273.76 334.613 275.001 334.613C276.257 334.613 277.166 334.057 277.726 332.945C278.293 331.825 278.577 330.073 278.577 327.689C278.577 325.305 278.293 323.561 277.726 322.456C277.166 321.344 276.257 320.788 275.001 320.788C273.76 320.788 272.856 321.336 272.288 322.433C271.721 323.523 271.437 325.275 271.437 327.689ZM290.686 336.01H288.848V324.182C288.848 323.198 288.878 322.267 288.938 321.389C288.779 321.548 288.602 321.715 288.405 321.889C288.208 322.063 287.308 322.8 285.703 324.102L284.704 322.808L289.097 319.414H290.686V336.01ZM309.595 332.196H307.132V336.01H305.327V332.196H297.256V330.55L305.134 319.323H307.132V330.482H309.595V332.196ZM305.327 330.482V324.965C305.327 323.883 305.365 322.66 305.441 321.298H305.35C304.987 322.025 304.646 322.626 304.328 323.103L299.141 330.482H305.327ZM325.29 336.01H323.36V321.128H318.104V319.414H330.545V321.128H325.29V336.01ZM344.403 329.778C344.403 331.806 343.892 333.391 342.871 334.534C341.849 335.669 340.438 336.237 338.636 336.237C337.524 336.237 336.536 335.976 335.674 335.453C334.811 334.931 334.145 334.182 333.676 333.206C333.207 332.23 332.972 331.087 332.972 329.778C332.972 327.75 333.479 326.172 334.493 325.044C335.507 323.909 336.915 323.342 338.716 323.342C340.456 323.342 341.838 323.92 342.859 325.078C343.888 326.236 344.403 327.803 344.403 329.778ZM334.925 329.778C334.925 331.367 335.242 332.578 335.878 333.41C336.514 334.243 337.448 334.659 338.682 334.659C339.915 334.659 340.85 334.246 341.486 333.422C342.129 332.589 342.451 331.375 342.451 329.778C342.451 328.196 342.129 326.997 341.486 326.179C340.85 325.355 339.908 324.942 338.659 324.942C337.426 324.942 336.495 325.347 335.867 326.157C335.239 326.966 334.925 328.173 334.925 329.778ZM346.637 323.569H348.657L351.382 330.663C351.98 332.283 352.35 333.452 352.494 334.171H352.585C352.683 333.785 352.888 333.126 353.198 332.196C353.516 331.257 354.545 328.382 356.285 323.569H358.306L352.96 337.735C352.43 339.135 351.809 340.126 351.098 340.709C350.394 341.299 349.528 341.595 348.498 341.595C347.923 341.595 347.356 341.53 346.796 341.402V339.892C347.212 339.983 347.677 340.028 348.192 340.028C349.486 340.028 350.409 339.302 350.962 337.849L351.654 336.078L346.637 323.569ZM371.959 329.778C371.959 331.806 371.449 333.391 370.427 334.534C369.405 335.669 367.994 336.237 366.193 336.237C365.08 336.237 364.093 335.976 363.23 335.453C362.367 334.931 361.701 334.182 361.232 333.206C360.763 332.23 360.529 331.087 360.529 329.778C360.529 327.75 361.036 326.172 362.05 325.044C363.064 323.909 364.471 323.342 366.272 323.342C368.013 323.342 369.394 323.92 370.416 325.078C371.445 326.236 371.959 327.803 371.959 329.778ZM362.481 329.778C362.481 331.367 362.799 332.578 363.434 333.41C364.07 334.243 365.005 334.659 366.238 334.659C367.472 334.659 368.406 334.246 369.042 333.422C369.685 332.589 370.007 331.375 370.007 329.778C370.007 328.196 369.685 326.997 369.042 326.179C368.406 325.355 367.464 324.942 366.216 324.942C364.982 324.942 364.051 325.347 363.423 326.157C362.795 326.966 362.481 328.173 362.481 329.778ZM380.187 334.682C380.52 334.682 380.841 334.659 381.152 334.613C381.462 334.561 381.708 334.508 381.889 334.455V335.896C381.685 335.995 381.382 336.074 380.981 336.135C380.588 336.203 380.232 336.237 379.914 336.237C377.508 336.237 376.305 334.969 376.305 332.434V325.033H374.522V324.125L376.305 323.342L377.099 320.685H378.189V323.569H381.799V325.033H378.189V332.355C378.189 333.104 378.367 333.679 378.722 334.08C379.078 334.481 379.566 334.682 380.187 334.682ZM392.932 336.01L392.557 334.239H392.467C391.846 335.018 391.225 335.548 390.605 335.828C389.992 336.101 389.224 336.237 388.301 336.237C387.067 336.237 386.098 335.919 385.395 335.283C384.698 334.648 384.35 333.743 384.35 332.57C384.35 330.058 386.36 328.741 390.378 328.62L392.489 328.552V327.78C392.489 326.804 392.277 326.085 391.854 325.623C391.437 325.154 390.768 324.919 389.844 324.919C388.808 324.919 387.635 325.237 386.325 325.873L385.747 324.431C386.36 324.098 387.029 323.837 387.756 323.648C388.49 323.459 389.224 323.364 389.958 323.364C391.441 323.364 392.538 323.693 393.25 324.352C393.969 325.01 394.328 326.066 394.328 327.519V336.01H392.932ZM388.675 334.682C389.848 334.682 390.768 334.36 391.434 333.717C392.107 333.073 392.444 332.173 392.444 331.015V329.891L390.56 329.971C389.061 330.024 387.979 330.258 387.313 330.675C386.655 331.083 386.325 331.723 386.325 332.593C386.325 333.274 386.53 333.792 386.938 334.148C387.355 334.504 387.934 334.682 388.675 334.682ZM411.441 336.01H409.512V321.128H404.256V319.414H416.697V321.128H411.441V336.01ZM421.587 323.569V331.639C421.587 332.653 421.818 333.41 422.279 333.91C422.741 334.409 423.464 334.659 424.448 334.659C425.749 334.659 426.699 334.303 427.297 333.592C427.902 332.881 428.205 331.719 428.205 330.107V323.569H430.089V336.01H428.534L428.262 334.341H428.159C427.774 334.954 427.236 335.423 426.548 335.749C425.866 336.074 425.087 336.237 424.209 336.237C422.696 336.237 421.561 335.877 420.804 335.158C420.055 334.439 419.68 333.289 419.68 331.708V323.569H421.587ZM443.504 336.01V327.962C443.504 326.948 443.273 326.191 442.812 325.691C442.35 325.192 441.627 324.942 440.644 324.942C439.342 324.942 438.388 325.294 437.783 325.998C437.178 326.702 436.875 327.863 436.875 329.483V336.01H434.991V323.569H436.523L436.83 325.271H436.92C437.306 324.658 437.847 324.185 438.544 323.852C439.24 323.512 440.016 323.342 440.871 323.342C442.369 323.342 443.497 323.705 444.253 324.431C445.01 325.15 445.388 326.304 445.388 327.893V336.01H443.504ZM458.633 334.341H458.531C457.661 335.605 456.359 336.237 454.626 336.237C452.999 336.237 451.732 335.681 450.823 334.568C449.923 333.456 449.473 331.874 449.473 329.823C449.473 327.772 449.927 326.179 450.835 325.044C451.743 323.909 453.007 323.342 454.626 323.342C456.314 323.342 457.608 323.955 458.508 325.18H458.656L458.576 324.284L458.531 323.41V318.347H460.415V336.01H458.883L458.633 334.341ZM454.865 334.659C456.151 334.659 457.082 334.311 457.657 333.615C458.24 332.911 458.531 331.779 458.531 330.221V329.823C458.531 328.06 458.236 326.804 457.646 326.055C457.063 325.298 456.128 324.919 454.842 324.919C453.737 324.919 452.889 325.351 452.299 326.213C451.716 327.069 451.425 328.279 451.425 329.846C451.425 331.435 451.716 332.635 452.299 333.444C452.882 334.254 453.737 334.659 454.865 334.659ZM470.992 323.342C471.545 323.342 472.041 323.387 472.479 323.478L472.218 325.226C471.704 325.112 471.25 325.056 470.856 325.056C469.85 325.056 468.987 325.464 468.268 326.282C467.557 327.099 467.201 328.117 467.201 329.335V336.01H465.317V323.569H466.872L467.088 325.873H467.178C467.64 325.063 468.196 324.439 468.847 324C469.498 323.561 470.213 323.342 470.992 323.342ZM483.352 336.01L482.977 334.239H482.886C482.266 335.018 481.645 335.548 481.025 335.828C480.412 336.101 479.644 336.237 478.72 336.237C477.487 336.237 476.518 335.919 475.814 335.283C475.118 334.648 474.77 333.743 474.77 332.57C474.77 330.058 476.779 328.741 480.798 328.62L482.909 328.552V327.78C482.909 326.804 482.697 326.085 482.273 325.623C481.857 325.154 481.187 324.919 480.264 324.919C479.227 324.919 478.054 325.237 476.745 325.873L476.166 324.431C476.779 324.098 477.449 323.837 478.175 323.648C478.91 323.459 479.644 323.364 480.378 323.364C481.861 323.364 482.958 323.693 483.67 324.352C484.388 325.01 484.748 326.066 484.748 327.519V336.01H483.352ZM479.095 334.682C480.268 334.682 481.187 334.36 481.853 333.717C482.527 333.073 482.864 332.173 482.864 331.015V329.891L480.979 329.971C479.481 330.024 478.399 330.258 477.733 330.675C477.074 331.083 476.745 331.723 476.745 332.593C476.745 333.274 476.95 333.792 477.358 334.148C477.774 334.504 478.353 334.682 479.095 334.682Z" fill="white"/>
<path d="M267.517 358.543H265.054V362.357H263.249V358.543H255.179V356.897L263.056 345.67H265.054V356.829H267.517V358.543ZM263.249 356.829V351.312C263.249 350.23 263.287 349.008 263.363 347.646H263.272C262.909 348.372 262.568 348.974 262.25 349.45L257.063 356.829H263.249ZM285.345 362.357H283.438L280.089 351.244C279.93 350.752 279.752 350.132 279.555 349.382C279.359 348.633 279.257 348.183 279.249 348.032C279.082 349.03 278.818 350.124 278.454 351.312L275.208 362.357H273.301L268.885 345.761H270.928L273.551 356.012C273.914 357.449 274.179 358.751 274.345 359.916C274.549 358.532 274.852 357.177 275.253 355.853L278.227 345.761H280.271L283.392 355.943C283.755 357.116 284.062 358.441 284.312 359.916C284.455 358.842 284.728 357.533 285.129 355.989L287.74 345.761H289.783L285.345 362.357ZM306.214 353.9C306.214 356.64 305.469 358.736 303.978 360.189C302.494 361.634 300.357 362.357 297.564 362.357H292.967V345.761H298.052C300.633 345.761 302.638 346.476 304.069 347.907C305.499 349.337 306.214 351.335 306.214 353.9ZM304.171 353.968C304.171 351.804 303.626 350.173 302.536 349.076C301.454 347.979 299.842 347.43 297.7 347.43H294.897V360.688H297.246C299.547 360.688 301.276 360.125 302.434 358.997C303.592 357.862 304.171 356.186 304.171 353.968ZM326.498 357.941C326.498 359.402 325.969 360.541 324.909 361.358C323.85 362.175 322.412 362.584 320.596 362.584C318.628 362.584 317.115 362.331 316.055 361.823V359.962C316.736 360.249 317.478 360.476 318.28 360.643C319.082 360.809 319.877 360.893 320.664 360.893C321.95 360.893 322.919 360.651 323.57 360.166C324.221 359.674 324.546 358.993 324.546 358.123C324.546 357.548 324.429 357.079 324.194 356.715C323.967 356.345 323.581 356.004 323.036 355.694C322.499 355.383 321.678 355.032 320.573 354.638C319.029 354.086 317.924 353.431 317.258 352.674C316.6 351.918 316.271 350.93 316.271 349.712C316.271 348.433 316.751 347.415 317.713 346.658C318.674 345.901 319.945 345.523 321.527 345.523C323.176 345.523 324.694 345.826 326.078 346.431L325.477 348.111C324.107 347.536 322.775 347.248 321.481 347.248C320.46 347.248 319.661 347.468 319.086 347.907C318.511 348.346 318.223 348.955 318.223 349.734C318.223 350.309 318.329 350.782 318.541 351.153C318.753 351.516 319.109 351.853 319.608 352.163C320.115 352.466 320.887 352.803 321.924 353.174C323.664 353.794 324.86 354.46 325.511 355.172C326.169 355.883 326.498 356.806 326.498 357.941ZM335.449 362.584C333.61 362.584 332.157 362.024 331.09 360.904C330.03 359.784 329.501 358.229 329.501 356.239C329.501 354.233 329.993 352.64 330.976 351.46C331.968 350.279 333.296 349.689 334.961 349.689C336.52 349.689 337.753 350.203 338.661 351.233C339.569 352.254 340.023 353.605 340.023 355.285V356.477H331.453C331.491 357.938 331.858 359.046 332.554 359.803C333.258 360.56 334.246 360.938 335.517 360.938C336.856 360.938 338.181 360.658 339.49 360.098V361.778C338.824 362.066 338.192 362.27 337.594 362.391C337.004 362.52 336.289 362.584 335.449 362.584ZM334.938 351.267C333.939 351.267 333.141 351.592 332.543 352.243C331.953 352.894 331.605 353.794 331.499 354.945H338.003C338.003 353.756 337.738 352.848 337.208 352.22C336.679 351.585 335.922 351.267 334.938 351.267ZM359.69 362.357V354.263C359.69 353.272 359.478 352.53 359.054 352.039C358.63 351.539 357.972 351.289 357.079 351.289C355.906 351.289 355.039 351.626 354.479 352.3C353.919 352.973 353.639 354.01 353.639 355.41V362.357H351.755V354.263C351.755 353.272 351.543 352.53 351.119 352.039C350.695 351.539 350.033 351.289 349.133 351.289C347.952 351.289 347.086 351.645 346.533 352.356C345.988 353.06 345.716 354.218 345.716 355.83V362.357H343.832V349.916H345.364L345.671 351.619H345.761C346.117 351.013 346.617 350.54 347.26 350.2C347.911 349.859 348.637 349.689 349.439 349.689C351.384 349.689 352.655 350.393 353.253 351.8H353.344C353.715 351.149 354.252 350.635 354.956 350.256C355.66 349.878 356.462 349.689 357.362 349.689C358.77 349.689 359.822 350.052 360.518 350.779C361.222 351.498 361.574 352.652 361.574 354.241V362.357H359.69ZM367.936 362.357H366.052V349.916H367.936V362.357ZM365.893 346.545C365.893 346.113 365.999 345.799 366.211 345.602C366.423 345.398 366.687 345.296 367.005 345.296C367.308 345.296 367.569 345.398 367.789 345.602C368.008 345.807 368.118 346.121 368.118 346.545C368.118 346.968 368.008 347.286 367.789 347.498C367.569 347.702 367.308 347.805 367.005 347.805C366.687 347.805 366.423 347.702 366.211 347.498C365.999 347.286 365.893 346.968 365.893 346.545ZM371.472 356.988V355.262H377.045V356.988H371.472ZM389.429 355.455V362.357H387.5V345.761H392.052C394.087 345.761 395.589 346.151 396.558 346.93C397.534 347.71 398.022 348.883 398.022 350.449C398.022 352.644 396.91 354.127 394.685 354.899L399.192 362.357H396.91L392.892 355.455H389.429ZM389.429 353.798H392.074C393.436 353.798 394.435 353.529 395.071 352.992C395.707 352.447 396.025 351.634 396.025 350.552C396.025 349.454 395.699 348.663 395.048 348.179C394.405 347.695 393.368 347.453 391.938 347.453H389.429V353.798ZM407.427 362.584C405.588 362.584 404.135 362.024 403.068 360.904C402.008 359.784 401.479 358.229 401.479 356.239C401.479 354.233 401.971 352.64 402.954 351.46C403.946 350.279 405.274 349.689 406.939 349.689C408.498 349.689 409.731 350.203 410.639 351.233C411.547 352.254 412.001 353.605 412.001 355.285V356.477H403.431C403.469 357.938 403.836 359.046 404.532 359.803C405.236 360.56 406.224 360.938 407.495 360.938C408.834 360.938 410.159 360.658 411.468 360.098V361.778C410.802 362.066 410.17 362.27 409.572 362.391C408.982 362.52 408.267 362.584 407.427 362.584ZM406.916 351.267C405.917 351.267 405.119 351.592 404.521 352.243C403.931 352.894 403.582 353.794 403.477 354.945H409.981C409.981 353.756 409.716 352.848 409.186 352.22C408.657 351.585 407.9 351.267 406.916 351.267ZM419.828 361.029C420.161 361.029 420.483 361.006 420.793 360.961C421.103 360.908 421.349 360.855 421.531 360.802V362.243C421.326 362.342 421.024 362.421 420.623 362.482C420.229 362.55 419.873 362.584 419.556 362.584C417.149 362.584 415.946 361.316 415.946 358.781V351.38H414.164V350.472L415.946 349.689L416.74 347.033H417.83V349.916H421.44V351.38H417.83V358.702C417.83 359.451 418.008 360.026 418.364 360.427C418.719 360.828 419.207 361.029 419.828 361.029ZM432.263 362.357L431.889 360.586H431.798C431.177 361.366 430.557 361.895 429.936 362.175C429.323 362.448 428.555 362.584 427.632 362.584C426.398 362.584 425.43 362.266 424.726 361.631C424.03 360.995 423.682 360.091 423.682 358.918C423.682 356.405 425.691 355.088 429.709 354.967L431.821 354.899V354.127C431.821 353.151 431.609 352.432 431.185 351.97C430.769 351.501 430.099 351.267 429.176 351.267C428.139 351.267 426.966 351.585 425.657 352.22L425.078 350.779C425.691 350.446 426.361 350.185 427.087 349.995C427.821 349.806 428.555 349.712 429.289 349.712C430.772 349.712 431.87 350.041 432.581 350.699C433.3 351.358 433.659 352.413 433.659 353.866V362.357H432.263ZM428.007 361.029C429.179 361.029 430.099 360.707 430.765 360.064C431.438 359.421 431.775 358.52 431.775 357.362V356.239L429.891 356.318C428.392 356.371 427.31 356.606 426.644 357.022C425.986 357.431 425.657 358.07 425.657 358.94C425.657 359.621 425.861 360.14 426.27 360.495C426.686 360.851 427.265 361.029 428.007 361.029ZM440.022 362.357H438.137V349.916H440.022V362.357ZM437.979 346.545C437.979 346.113 438.084 345.799 438.296 345.602C438.508 345.398 438.773 345.296 439.091 345.296C439.394 345.296 439.655 345.398 439.874 345.602C440.094 345.807 440.203 346.121 440.203 346.545C440.203 346.968 440.094 347.286 439.874 347.498C439.655 347.702 439.394 347.805 439.091 347.805C438.773 347.805 438.508 347.702 438.296 347.498C438.084 347.286 437.979 346.968 437.979 346.545ZM446.486 362.357H444.602V344.694H446.486V362.357ZM459.903 355.455V362.357H457.973V345.761H462.525C464.561 345.761 466.063 346.151 467.032 346.93C468.008 347.71 468.496 348.883 468.496 350.449C468.496 352.644 467.384 354.127 465.159 354.899L469.665 362.357H467.384L463.365 355.455H459.903ZM459.903 353.798H462.548C463.91 353.798 464.909 353.529 465.545 352.992C466.18 352.447 466.498 351.634 466.498 350.552C466.498 349.454 466.173 348.663 465.522 348.179C464.879 347.695 463.842 347.453 462.412 347.453H459.903V353.798ZM477.901 362.584C476.062 362.584 474.609 362.024 473.542 360.904C472.482 359.784 471.952 358.229 471.952 356.239C471.952 354.233 472.444 352.64 473.428 351.46C474.419 350.279 475.748 349.689 477.412 349.689C478.971 349.689 480.205 350.203 481.113 351.233C482.021 352.254 482.475 353.605 482.475 355.285V356.477H473.905C473.943 357.938 474.31 359.046 475.006 359.803C475.71 360.56 476.697 360.938 477.969 360.938C479.308 360.938 480.632 360.658 481.942 360.098V361.778C481.276 362.066 480.644 362.27 480.046 362.391C479.456 362.52 478.741 362.584 477.901 362.584ZM477.39 351.267C476.391 351.267 475.592 351.592 474.995 352.243C474.404 352.894 474.056 353.794 473.95 354.945H480.455C480.455 353.756 480.19 352.848 479.66 352.22C479.13 351.585 478.374 351.267 477.39 351.267ZM493.934 362.357L493.56 360.586H493.469C492.848 361.366 492.228 361.895 491.607 362.175C490.994 362.448 490.226 362.584 489.303 362.584C488.069 362.584 487.101 362.266 486.397 361.631C485.701 360.995 485.353 360.091 485.353 358.918C485.353 356.405 487.362 355.088 491.38 354.967L493.491 354.899V354.127C493.491 353.151 493.28 352.432 492.856 351.97C492.44 351.501 491.77 351.267 490.847 351.267C489.81 351.267 488.637 351.585 487.328 352.22L486.749 350.779C487.362 350.446 488.031 350.185 488.758 349.995C489.492 349.806 490.226 349.712 490.96 349.712C492.443 349.712 493.541 350.041 494.252 350.699C494.971 351.358 495.33 352.413 495.33 353.866V362.357H493.934ZM489.677 361.029C490.85 361.029 491.77 360.707 492.436 360.064C493.109 359.421 493.446 358.52 493.446 357.362V356.239L491.562 356.318C490.063 356.371 488.981 356.606 488.315 357.022C487.657 357.431 487.328 358.07 487.328 358.94C487.328 359.621 487.532 360.14 487.941 360.495C488.357 360.851 488.936 361.029 489.677 361.029ZM508.276 360.688H508.174C507.304 361.952 506.002 362.584 504.269 362.584C502.642 362.584 501.375 362.028 500.467 360.915C499.566 359.803 499.116 358.221 499.116 356.17C499.116 354.12 499.57 352.527 500.478 351.392C501.386 350.256 502.65 349.689 504.269 349.689C505.957 349.689 507.251 350.302 508.152 351.528H508.299L508.22 350.631L508.174 349.757V344.694H510.059V362.357H508.526L508.276 360.688ZM504.508 361.006C505.794 361.006 506.725 360.658 507.3 359.962C507.883 359.258 508.174 358.127 508.174 356.568V356.17C508.174 354.407 507.879 353.151 507.289 352.402C506.706 351.645 505.772 351.267 504.485 351.267C503.38 351.267 502.533 351.698 501.942 352.561C501.36 353.416 501.068 354.627 501.068 356.193C501.068 357.782 501.36 358.982 501.942 359.792C502.525 360.601 503.38 361.006 504.508 361.006ZM512.675 349.916H514.695L517.42 357.01C518.018 358.63 518.388 359.799 518.532 360.518H518.623C518.721 360.132 518.926 359.474 519.236 358.543C519.554 357.605 520.583 354.729 522.324 349.916H524.344L518.998 364.082C518.468 365.482 517.847 366.474 517.136 367.056C516.432 367.647 515.566 367.942 514.537 367.942C513.961 367.942 513.394 367.878 512.834 367.749V366.239C513.25 366.33 513.715 366.375 514.23 366.375C515.524 366.375 516.447 365.649 517 364.196L517.692 362.425L512.675 349.916Z" fill="white"/>
<path d="M289.921 398.475C289.921 399.936 289.515 401.054 288.704 401.829C287.893 402.6 286.724 402.985 285.199 402.985H282.723V394.134H285.459C286.868 394.134 287.964 394.513 288.747 395.272C289.53 396.031 289.921 397.099 289.921 398.475ZM288.395 398.523C288.395 396.404 287.405 395.345 285.423 395.345H284.17V401.768H285.199C287.33 401.768 288.395 400.687 288.395 398.523ZM294.758 403.106C293.716 403.106 292.901 402.803 292.312 402.198C291.726 401.589 291.434 400.751 291.434 399.686C291.434 398.592 291.706 397.732 292.251 397.107C292.796 396.481 293.545 396.168 294.497 396.168C295.381 396.168 296.079 396.437 296.592 396.973C297.104 397.51 297.361 398.249 297.361 399.189V399.958H292.899C292.919 400.608 293.095 401.108 293.426 401.459C293.757 401.807 294.223 401.98 294.824 401.98C295.22 401.98 295.587 401.944 295.926 401.871C296.269 401.794 296.636 401.669 297.028 401.496V402.652C296.681 402.818 296.33 402.935 295.974 403.003C295.619 403.072 295.214 403.106 294.758 403.106ZM294.497 397.246C294.045 397.246 293.682 397.389 293.407 397.676C293.137 397.962 292.976 398.38 292.923 398.929H295.962C295.954 398.376 295.821 397.958 295.563 397.676C295.304 397.389 294.949 397.246 294.497 397.246ZM303.632 401.078C303.632 401.732 303.394 402.234 302.918 402.586C302.441 402.933 301.759 403.106 300.871 403.106C299.979 403.106 299.263 402.971 298.722 402.701V401.472C299.509 401.835 300.242 402.016 300.92 402.016C301.796 402.016 302.234 401.752 302.234 401.223C302.234 401.054 302.185 400.913 302.088 400.8C301.991 400.687 301.832 400.57 301.61 400.448C301.388 400.327 301.079 400.19 300.684 400.037C299.913 399.738 299.39 399.439 299.116 399.141C298.845 398.842 298.71 398.455 298.71 397.978C298.71 397.405 298.94 396.961 299.4 396.647C299.864 396.328 300.494 396.168 301.289 396.168C302.076 396.168 302.821 396.328 303.523 396.647L303.063 397.718C302.341 397.419 301.733 397.27 301.241 397.27C300.49 397.27 300.115 397.484 300.115 397.912C300.115 398.122 300.212 398.299 300.405 398.445C300.603 398.59 301.031 398.79 301.689 399.044C302.242 399.258 302.643 399.454 302.893 399.631C303.144 399.809 303.329 400.015 303.45 400.249C303.572 400.479 303.632 400.755 303.632 401.078ZM306.707 399.45L307.512 398.445L309.534 396.289H311.175L308.481 399.165L311.344 402.985H309.673L307.524 400.049L306.743 400.691V402.985H305.333V393.565H306.743V398.16L306.671 399.45H306.707ZM315.079 401.956C315.426 401.956 315.773 401.901 316.12 401.792V402.864C315.963 402.933 315.759 402.989 315.509 403.034C315.263 403.082 315.006 403.106 314.74 403.106C313.392 403.106 312.718 402.396 312.718 400.975V397.367H311.804V396.737L312.784 396.217L313.269 394.8H314.147V396.289H316.054V397.367H314.147V400.951C314.147 401.294 314.231 401.548 314.401 401.714C314.574 401.875 314.8 401.956 315.079 401.956ZM323.56 399.625C323.56 400.719 323.279 401.572 322.718 402.186C322.157 402.799 321.376 403.106 320.376 403.106C319.75 403.106 319.197 402.965 318.717 402.682C318.236 402.4 317.867 401.994 317.609 401.466C317.351 400.937 317.221 400.323 317.221 399.625C317.221 398.539 317.5 397.692 318.057 397.082C318.614 396.473 319.399 396.168 320.412 396.168C321.381 396.168 322.147 396.481 322.712 397.107C323.277 397.728 323.56 398.568 323.56 399.625ZM318.686 399.625C318.686 401.171 319.258 401.944 320.4 401.944C321.53 401.944 322.095 401.171 322.095 399.625C322.095 398.095 321.526 397.331 320.388 397.331C319.79 397.331 319.356 397.528 319.086 397.924C318.82 398.319 318.686 398.887 318.686 399.625ZM328.754 403.106C327.906 403.106 327.248 402.801 326.78 402.192H326.695C326.752 402.757 326.78 403.1 326.78 403.221V405.964H325.357V396.289H326.508C326.54 396.414 326.606 396.713 326.707 397.185H326.78C327.224 396.507 327.89 396.168 328.778 396.168C329.613 396.168 330.263 396.471 330.727 397.076C331.195 397.682 331.43 398.531 331.43 399.625C331.43 400.719 331.191 401.572 330.715 402.186C330.243 402.799 329.589 403.106 328.754 403.106ZM328.409 397.331C327.844 397.331 327.43 397.496 327.167 397.827C326.909 398.158 326.78 398.687 326.78 399.413V399.625C326.78 400.44 326.909 401.032 327.167 401.399C327.426 401.762 327.848 401.944 328.433 401.944C328.925 401.944 329.305 401.742 329.571 401.338C329.837 400.935 329.971 400.36 329.971 399.613C329.971 398.862 329.837 398.295 329.571 397.912C329.309 397.524 328.921 397.331 328.409 397.331ZM344.142 402.985H342.368L338.015 395.932H337.967L337.997 396.326C338.053 397.076 338.082 397.762 338.082 398.384V402.985H336.768V394.134H338.524L342.864 401.151H342.901C342.893 401.058 342.876 400.721 342.852 400.14C342.828 399.554 342.816 399.098 342.816 398.771V394.134H344.142V402.985ZM352.423 399.625C352.423 400.719 352.142 401.572 351.581 402.186C351.02 402.799 350.239 403.106 349.239 403.106C348.613 403.106 348.06 402.965 347.58 402.682C347.099 402.4 346.73 401.994 346.472 401.466C346.213 400.937 346.084 400.323 346.084 399.625C346.084 398.539 346.363 397.692 346.92 397.082C347.477 396.473 348.262 396.168 349.275 396.168C350.243 396.168 351.01 396.481 351.575 397.107C352.14 397.728 352.423 398.568 352.423 399.625ZM347.549 399.625C347.549 401.171 348.121 401.944 349.263 401.944C350.393 401.944 350.958 401.171 350.958 399.625C350.958 398.095 350.389 397.331 349.251 397.331C348.653 397.331 348.219 397.528 347.949 397.924C347.683 398.319 347.549 398.887 347.549 399.625ZM356.715 401.956C357.062 401.956 357.409 401.901 357.756 401.792V402.864C357.598 402.933 357.395 402.989 357.144 403.034C356.898 403.082 356.642 403.106 356.376 403.106C355.028 403.106 354.353 402.396 354.353 400.975V397.367H353.439V396.737L354.42 396.217L354.904 394.8H355.782V396.289H357.689V397.367H355.782V400.951C355.782 401.294 355.867 401.548 356.037 401.714C356.21 401.875 356.436 401.956 356.715 401.956ZM360.679 402.985H359.257V396.289H360.679V402.985ZM359.172 394.515C359.172 394.261 359.24 394.065 359.378 393.928C359.519 393.791 359.719 393.722 359.977 393.722C360.227 393.722 360.421 393.791 360.558 393.928C360.699 394.065 360.77 394.261 360.77 394.515C360.77 394.758 360.699 394.949 360.558 395.091C360.421 395.228 360.227 395.296 359.977 395.296C359.719 395.296 359.519 395.228 359.378 395.091C359.24 394.949 359.172 394.758 359.172 394.515ZM366.236 397.367H364.602V402.985H363.173V397.367H362.071V396.701L363.173 396.265V395.829C363.173 395.038 363.359 394.453 363.73 394.074C364.101 393.69 364.668 393.498 365.431 393.498C365.932 393.498 366.424 393.581 366.908 393.747L366.533 394.824C366.182 394.711 365.847 394.655 365.528 394.655C365.205 394.655 364.969 394.756 364.82 394.957C364.674 395.155 364.602 395.454 364.602 395.853V396.289H366.236V397.367ZM368.797 402.985H367.374V396.289H368.797V402.985ZM367.29 394.515C367.29 394.261 367.358 394.065 367.495 393.928C367.637 393.791 367.837 393.722 368.095 393.722C368.345 393.722 368.539 393.791 368.676 393.928C368.817 394.065 368.888 394.261 368.888 394.515C368.888 394.758 368.817 394.949 368.676 395.091C368.539 395.228 368.345 395.296 368.095 395.296C367.837 395.296 367.637 395.228 367.495 395.091C367.358 394.949 367.29 394.758 367.29 394.515ZM373.7 403.106C372.687 403.106 371.916 402.812 371.388 402.222C370.863 401.629 370.601 400.779 370.601 399.674C370.601 398.547 370.875 397.682 371.424 397.076C371.977 396.471 372.774 396.168 373.815 396.168C374.522 396.168 375.157 396.299 375.722 396.562L375.292 397.706C374.691 397.472 374.195 397.355 373.803 397.355C372.645 397.355 372.066 398.124 372.066 399.661C372.066 400.412 372.209 400.977 372.495 401.357C372.786 401.732 373.21 401.92 373.767 401.92C374.4 401.92 375 401.762 375.565 401.447V402.688C375.311 402.838 375.038 402.945 374.748 403.009C374.461 403.074 374.112 403.106 373.7 403.106ZM381.485 402.985L381.2 402.053H381.152C380.829 402.46 380.504 402.739 380.177 402.888C379.85 403.034 379.431 403.106 378.918 403.106C378.26 403.106 377.746 402.929 377.374 402.573C377.007 402.218 376.823 401.716 376.823 401.066C376.823 400.376 377.08 399.855 377.592 399.504C378.105 399.153 378.886 398.961 379.935 398.929L381.091 398.893V398.535C381.091 398.108 380.991 397.789 380.789 397.579C380.591 397.365 380.282 397.258 379.863 397.258C379.519 397.258 379.191 397.308 378.876 397.409C378.561 397.51 378.258 397.629 377.968 397.767L377.507 396.749C377.871 396.56 378.268 396.416 378.7 396.32C379.132 396.219 379.54 396.168 379.923 396.168C380.775 396.168 381.416 396.354 381.848 396.725C382.284 397.097 382.502 397.68 382.502 398.475V402.985H381.485ZM379.366 402.016C379.883 402.016 380.296 401.873 380.607 401.587C380.922 401.296 381.079 400.89 381.079 400.37V399.789L380.22 399.825C379.55 399.849 379.061 399.962 378.755 400.164C378.452 400.362 378.301 400.666 378.301 401.078C378.301 401.377 378.389 401.609 378.567 401.774C378.745 401.936 379.011 402.016 379.366 402.016ZM387.139 401.956C387.486 401.956 387.833 401.901 388.18 401.792V402.864C388.023 402.933 387.819 402.989 387.569 403.034C387.322 403.082 387.066 403.106 386.8 403.106C385.452 403.106 384.778 402.396 384.778 400.975V397.367H383.864V396.737L384.844 396.217L385.329 394.8H386.206V396.289H388.114V397.367H386.206V400.951C386.206 401.294 386.291 401.548 386.461 401.714C386.634 401.875 386.86 401.956 387.139 401.956ZM391.104 402.985H389.681V396.289H391.104V402.985ZM389.596 394.515C389.596 394.261 389.665 394.065 389.802 393.928C389.943 393.791 390.143 393.722 390.401 393.722C390.651 393.722 390.845 393.791 390.982 393.928C391.124 394.065 391.194 394.261 391.194 394.515C391.194 394.758 391.124 394.949 390.982 395.091C390.845 395.228 390.651 395.296 390.401 395.296C390.143 395.296 389.943 395.228 389.802 395.091C389.665 394.949 389.596 394.758 389.596 394.515ZM399.239 399.625C399.239 400.719 398.959 401.572 398.398 402.186C397.837 402.799 397.056 403.106 396.055 403.106C395.429 403.106 394.877 402.965 394.396 402.682C393.916 402.4 393.547 401.994 393.288 401.466C393.03 400.937 392.901 400.323 392.901 399.625C392.901 398.539 393.179 397.692 393.736 397.082C394.293 396.473 395.078 396.168 396.091 396.168C397.06 396.168 397.827 396.481 398.392 397.107C398.957 397.728 399.239 398.568 399.239 399.625ZM394.366 399.625C394.366 401.171 394.937 401.944 396.079 401.944C397.209 401.944 397.774 401.171 397.774 399.625C397.774 398.095 397.205 397.331 396.067 397.331C395.47 397.331 395.036 397.528 394.766 397.924C394.499 398.319 394.366 398.887 394.366 399.625ZM406.927 402.985H405.499V398.868C405.499 398.352 405.394 397.966 405.184 397.712C404.978 397.458 404.649 397.331 404.197 397.331C403.596 397.331 403.156 397.508 402.877 397.863C402.599 398.219 402.46 398.814 402.46 399.649V402.985H401.037V396.289H402.151L402.351 397.167H402.423C402.625 396.848 402.912 396.602 403.283 396.429C403.654 396.255 404.066 396.168 404.518 396.168C406.124 396.168 406.927 396.986 406.927 398.62V402.985Z" fill="#828282"/>
<rect x="164.283" y="416.915" width="354.913" height="54.2444" fill="#737373"/>
<path d="M320.558 437.134C318.861 437.134 317.526 437.735 316.554 438.939C315.581 440.142 315.095 441.802 315.095 443.92C315.095 446.136 315.561 447.813 316.492 448.95C317.431 450.088 318.787 450.656 320.558 450.656C321.325 450.656 322.066 450.582 322.783 450.434C323.5 450.277 324.246 450.079 325.02 449.84V452.374C323.603 452.91 321.996 453.178 320.2 453.178C317.555 453.178 315.524 452.378 314.106 450.78C312.689 449.173 311.98 446.878 311.98 443.895C311.98 442.016 312.322 440.372 313.006 438.963C313.698 437.554 314.695 436.475 315.997 435.725C317.299 434.975 318.828 434.6 320.583 434.6C322.429 434.6 324.135 434.987 325.7 435.762L324.637 438.222C324.028 437.933 323.381 437.682 322.697 437.468C322.021 437.245 321.308 437.134 320.558 437.134ZM331.365 452.93H328.46V433.698H331.365V452.93ZM347.511 446.07C347.511 448.304 346.938 450.046 345.793 451.299C344.647 452.551 343.053 453.178 341.009 453.178C339.732 453.178 338.603 452.889 337.622 452.312C336.642 451.736 335.888 450.907 335.36 449.828C334.833 448.749 334.569 447.496 334.569 446.07C334.569 443.854 335.138 442.123 336.275 440.879C337.412 439.635 339.015 439.013 341.083 439.013C343.061 439.013 344.627 439.651 345.78 440.929C346.934 442.198 347.511 443.912 347.511 446.07ZM337.561 446.07C337.561 449.226 338.727 450.804 341.059 450.804C343.366 450.804 344.519 449.226 344.519 446.07C344.519 442.947 343.358 441.386 341.034 441.386C339.814 441.386 338.928 441.79 338.376 442.597C337.832 443.405 337.561 444.563 337.561 446.07ZM359.899 449.037C359.899 450.372 359.413 451.398 358.441 452.115C357.468 452.823 356.076 453.178 354.263 453.178C352.442 453.178 350.979 452.902 349.875 452.35V449.84C351.482 450.582 352.977 450.953 354.362 450.953C356.15 450.953 357.044 450.413 357.044 449.334C357.044 448.988 356.945 448.699 356.747 448.468C356.549 448.238 356.224 447.999 355.771 447.751C355.317 447.504 354.687 447.224 353.88 446.911C352.306 446.301 351.239 445.691 350.678 445.082C350.126 444.472 349.85 443.681 349.85 442.708C349.85 441.538 350.32 440.632 351.259 439.989C352.207 439.338 353.492 439.013 355.116 439.013C356.722 439.013 358.243 439.338 359.677 439.989L358.737 442.177C357.262 441.567 356.022 441.262 355.017 441.262C353.484 441.262 352.718 441.699 352.718 442.572C352.718 443.001 352.915 443.364 353.311 443.66C353.715 443.957 354.588 444.365 355.931 444.884C357.06 445.321 357.88 445.72 358.391 446.083C358.902 446.445 359.281 446.866 359.528 447.344C359.775 447.813 359.899 448.378 359.899 449.037ZM368.876 453.178C366.75 453.178 365.085 452.56 363.882 451.324C362.688 450.079 362.09 448.37 362.09 446.194C362.09 443.961 362.646 442.206 363.759 440.929C364.871 439.651 366.4 439.013 368.345 439.013C370.149 439.013 371.575 439.561 372.621 440.657C373.668 441.753 374.191 443.261 374.191 445.181V446.75H365.081C365.123 448.077 365.481 449.099 366.157 449.816C366.832 450.524 367.784 450.879 369.012 450.879C369.82 450.879 370.569 450.804 371.262 450.656C371.962 450.5 372.712 450.244 373.511 449.89V452.251C372.802 452.589 372.086 452.827 371.36 452.968C370.635 453.108 369.807 453.178 368.876 453.178ZM368.345 441.213C367.422 441.213 366.68 441.505 366.12 442.09C365.568 442.675 365.238 443.528 365.131 444.649H371.336C371.319 443.52 371.047 442.667 370.52 442.09C369.993 441.505 369.267 441.213 368.345 441.213Z" fill="white"/>
</g>
<g clip-path="url(#clip1)">
<path d="M175.649 53.2197C175.649 41.5217 185.132 32.0386 196.83 32.0386H485.1C496.798 32.0386 506.281 41.5217 506.281 53.2197V249.533H175.649V53.2197Z" fill="#D9D9D9"/>
<path d="M197.52 74.0536H185.403V71.5046L189.754 67.106C191.043 65.7861 191.884 64.8732 192.28 64.3673C192.675 63.8536 192.959 63.3794 193.133 62.9446C193.307 62.5099 193.394 62.0594 193.394 61.5931C193.394 60.8975 193.2 60.3798 192.813 60.0399C192.434 59.7001 191.924 59.5301 191.284 59.5301C190.612 59.5301 189.96 59.6843 189.327 59.9925C188.695 60.3008 188.035 60.7394 187.348 61.3085L185.356 58.9492C186.209 58.222 186.917 57.7083 187.478 57.4079C188.039 57.1076 188.652 56.8784 189.316 56.7203C189.98 56.5543 190.723 56.4713 191.545 56.4713C192.627 56.4713 193.584 56.6689 194.414 57.0641C195.244 57.4593 195.888 58.0126 196.346 58.7239C196.805 59.4353 197.034 60.2494 197.034 61.1663C197.034 61.9645 196.892 62.7154 196.607 63.4189C196.33 64.1144 195.896 64.8297 195.303 65.5648C194.718 66.2998 193.683 67.3471 192.197 68.7066L189.968 70.8051V70.9711H197.52V74.0536ZM211.157 65.3869C211.157 68.4141 210.659 70.6549 209.663 72.1092C208.675 73.5635 207.15 74.2907 205.087 74.2907C203.087 74.2907 201.578 73.5398 200.558 72.0381C199.546 70.5363 199.041 68.3193 199.041 65.3869C199.041 62.3281 199.535 60.0755 200.523 58.6291C201.511 57.1748 203.032 56.4476 205.087 56.4476C207.087 56.4476 208.596 57.2064 209.616 58.7239C210.644 60.2415 211.157 62.4625 211.157 65.3869ZM202.68 65.3869C202.68 67.5131 202.862 69.0386 203.226 69.9633C203.597 70.8802 204.218 71.3386 205.087 71.3386C205.941 71.3386 206.557 70.8723 206.937 69.9396C207.316 69.0069 207.506 67.4894 207.506 65.3869C207.506 63.2608 207.312 61.7353 206.925 60.8106C206.545 59.8779 205.933 59.4116 205.087 59.4116C204.226 59.4116 203.609 59.8779 203.238 60.8106C202.866 61.7353 202.68 63.2608 202.68 65.3869ZM221.926 74.0536H218.262V64.0235L218.298 62.3756L218.357 60.5735C217.748 61.1821 217.326 61.5812 217.088 61.7709L215.097 63.3714L213.33 61.1663L218.914 56.7203H221.926V74.0536ZM239.108 70.4613H237.021V74.0536H233.441V70.4613H226.043V67.9122L233.642 56.7203H237.021V67.6158H239.108V70.4613ZM233.441 67.6158V64.6756C233.441 64.1855 233.461 63.4742 233.5 62.5415C233.54 61.6089 233.571 61.0675 233.595 60.9173H233.5C233.208 61.5654 232.856 62.1977 232.445 62.8142L229.268 67.6158H233.441ZM254.397 74.0536H250.721V59.7791H246.014V56.7203H259.103V59.7791H254.397V74.0536ZM264.228 67.4024C264.228 68.7145 264.442 69.7064 264.868 70.3783C265.303 71.0501 266.007 71.386 266.979 71.386C267.943 71.386 268.635 71.0541 269.054 70.3901C269.48 69.7183 269.694 68.7224 269.694 67.4024C269.694 66.0904 269.48 65.1064 269.054 64.4503C268.627 63.7943 267.927 63.4663 266.955 63.4663C265.991 63.4663 265.295 63.7943 264.868 64.4503C264.442 65.0985 264.228 66.0825 264.228 67.4024ZM273.393 67.4024C273.393 69.5602 272.824 71.2477 271.686 72.4649C270.547 73.6821 268.963 74.2907 266.931 74.2907C265.659 74.2907 264.536 74.0141 263.564 73.4608C262.592 72.8996 261.845 72.0974 261.324 71.0541C260.802 70.0107 260.541 68.7935 260.541 67.4024C260.541 65.2368 261.106 63.5532 262.236 62.3518C263.367 61.1504 264.955 60.5497 267.003 60.5497C268.275 60.5497 269.397 60.8264 270.37 61.3797C271.342 61.9329 272.089 62.7273 272.61 63.7627C273.132 64.7981 273.393 66.0114 273.393 67.4024ZM274.344 60.7987H278.304L280.806 68.2561C281.019 68.9042 281.166 69.6709 281.245 70.5561H281.316C281.403 69.742 281.573 68.9753 281.826 68.2561L284.28 60.7987H288.157L282.549 75.749C282.035 77.1322 281.3 78.1676 280.344 78.8552C279.395 79.5429 278.285 79.8867 277.012 79.8867C276.388 79.8867 275.775 79.8195 275.174 79.6851V76.816C275.609 76.9188 276.083 76.9701 276.597 76.9701C277.237 76.9701 277.795 76.7725 278.269 76.3773C278.751 75.99 279.126 75.4012 279.395 74.6108L279.608 73.9587L274.344 60.7987ZM292.807 67.4024C292.807 68.7145 293.021 69.7064 293.447 70.3783C293.882 71.0501 294.586 71.386 295.558 71.386C296.522 71.386 297.214 71.0541 297.633 70.3901C298.059 69.7183 298.273 68.7224 298.273 67.4024C298.273 66.0904 298.059 65.1064 297.633 64.4503C297.206 63.7943 296.506 63.4663 295.534 63.4663C294.57 63.4663 293.874 63.7943 293.447 64.4503C293.021 65.0985 292.807 66.0825 292.807 67.4024ZM301.972 67.4024C301.972 69.5602 301.403 71.2477 300.265 72.4649C299.126 73.6821 297.542 74.2907 295.51 74.2907C294.238 74.2907 293.115 74.0141 292.143 73.4608C291.171 72.8996 290.424 72.0974 289.903 71.0541C289.381 70.0107 289.12 68.7935 289.12 67.4024C289.12 65.2368 289.685 63.5532 290.815 62.3518C291.946 61.1504 293.534 60.5497 295.582 60.5497C296.854 60.5497 297.976 60.8264 298.949 61.3797C299.921 61.9329 300.668 62.7273 301.189 63.7627C301.711 64.7981 301.972 66.0114 301.972 67.4024ZM310.405 71.4097C311.037 71.4097 311.796 71.2714 312.681 70.9948V73.6861C311.78 74.0892 310.673 74.2907 309.361 74.2907C307.915 74.2907 306.86 73.9271 306.196 73.2C305.54 72.4649 305.212 71.3663 305.212 69.904V63.5137H303.481V61.9843L305.472 60.775L306.516 57.977H308.828V60.7987H312.539V63.5137H308.828V69.904C308.828 70.4178 308.97 70.7972 309.255 71.0422C309.547 71.2872 309.93 71.4097 310.405 71.4097ZM323.651 74.0536L322.951 72.2515H322.856C322.248 73.0182 321.619 73.5517 320.971 73.852C320.331 74.1445 319.493 74.2907 318.458 74.2907C317.185 74.2907 316.182 73.9271 315.446 73.2C314.719 72.4728 314.356 71.4374 314.356 70.0937C314.356 68.6868 314.846 67.6514 315.826 66.9875C316.814 66.3157 318.3 65.9442 320.284 65.873L322.584 65.8019V65.221C322.584 63.8773 321.896 63.2055 320.521 63.2055C319.462 63.2055 318.217 63.5256 316.786 64.1658L315.589 61.7235C317.114 60.9252 318.806 60.526 320.663 60.526C322.441 60.526 323.805 60.9133 324.753 61.6879C325.702 62.4625 326.176 63.6402 326.176 65.221V74.0536H323.651ZM322.584 67.9122L321.185 67.9597C320.133 67.9913 319.351 68.181 318.837 68.5288C318.323 68.8765 318.067 69.4061 318.067 70.1174C318.067 71.137 318.652 71.6468 319.821 71.6468C320.659 71.6468 321.327 71.4058 321.825 70.9236C322.331 70.4415 322.584 69.8013 322.584 69.003V67.9122ZM342.911 74.0536H339.236V59.7791H334.529V56.7203H347.618V59.7791H342.911V74.0536ZM359.252 74.0536L358.766 72.3582H358.576C358.189 72.9747 357.639 73.4529 356.928 73.7928C356.217 74.1247 355.406 74.2907 354.497 74.2907C352.94 74.2907 351.767 73.8758 350.976 73.0458C350.186 72.208 349.791 71.0066 349.791 69.4417V60.7987H353.407V68.5406C353.407 69.497 353.577 70.2162 353.916 70.6984C354.256 71.1726 354.798 71.4097 355.541 71.4097C356.552 71.4097 357.284 71.0738 357.734 70.402C358.185 69.7222 358.41 68.5999 358.41 67.0349V60.7987H362.026V74.0536H359.252ZM377.916 74.0536H374.3V66.3117C374.3 65.3553 374.13 64.64 373.79 64.1658C373.45 63.6837 372.909 63.4426 372.166 63.4426C371.154 63.4426 370.423 63.7824 369.972 64.4622C369.522 65.134 369.297 66.2524 369.297 67.8174V74.0536H365.681V60.7987H368.443L368.929 62.4941H369.131C369.534 61.8539 370.087 61.3718 370.791 61.0477C371.502 60.7157 372.308 60.5497 373.209 60.5497C374.75 60.5497 375.92 60.9687 376.718 61.8065C377.517 62.6364 377.916 63.8378 377.916 65.4107V74.0536ZM385.697 74.2907C384.139 74.2907 382.914 73.6861 382.021 72.4768C381.136 71.2675 380.693 69.5918 380.693 67.4499C380.693 65.2763 381.144 63.5849 382.045 62.3756C382.954 61.1583 384.203 60.5497 385.791 60.5497C387.459 60.5497 388.732 61.1979 389.609 62.4941H389.728C389.546 61.5061 389.455 60.6248 389.455 59.8503V55.6058H393.083V74.0536H390.309L389.609 72.3345H389.455C388.633 73.6386 387.38 74.2907 385.697 74.2907ZM386.965 71.4097C387.89 71.4097 388.566 71.141 388.992 70.6035C389.427 70.0661 389.664 69.1532 389.704 67.8648V67.4736C389.704 66.0509 389.483 65.0313 389.04 64.4148C388.605 63.7983 387.894 63.49 386.906 63.49C386.1 63.49 385.471 63.8338 385.021 64.5215C384.578 65.2012 384.357 66.1931 384.357 67.4973C384.357 68.8014 384.582 69.7815 385.033 70.4375C385.483 71.0857 386.127 71.4097 386.965 71.4097ZM404.124 60.5497C404.614 60.5497 405.021 60.5853 405.345 60.6565L405.072 64.0472C404.78 63.9682 404.424 63.9287 404.005 63.9287C402.851 63.9287 401.95 64.2251 401.302 64.8179C400.662 65.4107 400.342 66.2406 400.342 67.3076V74.0536H396.726V60.7987H399.464L399.998 63.0276H400.176C400.587 62.2847 401.14 61.6879 401.836 61.2374C402.539 60.779 403.302 60.5497 404.124 60.5497ZM416.03 74.0536L415.331 72.2515H415.236C414.627 73.0182 413.999 73.5517 413.351 73.852C412.711 74.1445 411.873 74.2907 410.837 74.2907C409.565 74.2907 408.561 73.9271 407.826 73.2C407.099 72.4728 406.735 71.4374 406.735 70.0937C406.735 68.6868 407.225 67.6514 408.205 66.9875C409.193 66.3157 410.679 65.9442 412.663 65.873L414.963 65.8019V65.221C414.963 63.8773 414.276 63.2055 412.9 63.2055C411.841 63.2055 410.596 63.5256 409.166 64.1658L407.968 61.7235C409.494 60.9252 411.185 60.526 413.043 60.526C414.821 60.526 416.184 60.9133 417.133 61.6879C418.081 62.4625 418.556 63.6402 418.556 65.221V74.0536H416.03ZM414.963 67.9122L413.564 67.9597C412.513 67.9913 411.731 68.181 411.217 68.5288C410.703 68.8765 410.446 69.4061 410.446 70.1174C410.446 71.137 411.031 71.6468 412.201 71.6468C413.039 71.6468 413.706 71.4058 414.204 70.9236C414.71 70.4415 414.963 69.8013 414.963 69.003V67.9122ZM427.395 67.4024C427.395 65.3079 427.699 63.3477 428.307 61.5219C428.924 59.6961 429.809 58.0956 430.963 56.7203H433.927C432.813 58.2458 431.971 59.9214 431.402 61.7472C430.833 63.573 430.548 65.4502 430.548 67.3787C430.548 69.3152 430.837 71.1884 431.414 72.9984C431.999 74.8005 432.828 76.4327 433.903 77.8949H430.963C429.801 76.5512 428.916 74.9823 428.307 73.1881C427.699 71.3939 427.395 69.4654 427.395 67.4024ZM447.991 70.4613H445.905V74.0536H442.324V70.4613H434.926V67.9122L442.526 56.7203H445.905V67.6158H447.991V70.4613ZM442.324 67.6158V64.6756C442.324 64.1855 442.344 63.4742 442.384 62.5415C442.423 61.6089 442.455 61.0675 442.478 60.9173H442.384C442.091 61.5654 441.739 62.1977 441.328 62.8142L438.151 67.6158H442.324ZM467.308 74.0536H463.123L460.775 64.9483C460.688 64.6242 460.538 63.9563 460.325 62.9446C460.119 61.925 460.001 61.2413 459.969 60.8936C459.922 61.3204 459.803 62.008 459.613 62.9565C459.424 63.8971 459.277 64.5689 459.175 64.972L456.839 74.0536H452.666L448.244 56.7203H451.86L454.077 66.1813C454.464 67.9281 454.744 69.4417 454.918 70.7221C454.966 70.2716 455.072 69.576 455.238 68.6355C455.412 67.687 455.574 66.9519 455.725 66.4303L458.25 56.7203H461.724L464.249 66.4303C464.36 66.865 464.498 67.5289 464.664 68.422C464.83 69.3152 464.956 70.0819 465.043 70.7221C465.122 70.1056 465.249 69.3389 465.423 68.422C465.597 67.4973 465.755 66.7504 465.897 66.1813L468.102 56.7203H471.718L467.308 74.0536ZM488.142 65.221C488.142 68.0743 487.328 70.2597 485.699 71.7773C484.079 73.2948 481.736 74.0536 478.669 74.0536H473.761V56.7203H479.202C482.032 56.7203 484.229 57.4672 485.794 58.9611C487.359 60.4549 488.142 62.5415 488.142 65.221ZM484.324 65.3158C484.324 61.5931 482.68 59.7317 479.392 59.7317H477.436V71.0185H479.013C482.554 71.0185 484.324 69.1176 484.324 65.3158ZM496.669 67.4024C496.669 69.4812 496.361 71.4176 495.745 73.2118C495.136 75.006 494.255 76.567 493.101 77.8949H490.16C491.227 76.4406 492.053 74.8124 492.638 73.0103C493.223 71.2003 493.516 69.3231 493.516 67.3787C493.516 65.4502 493.231 63.573 492.662 61.7472C492.093 59.9214 491.251 58.2458 490.137 56.7203H493.101C494.263 58.1035 495.148 59.7119 495.756 61.5456C496.365 63.3714 496.669 65.3237 496.669 67.4024Z" fill="#030303"/>
<path d="M202.345 98.4265C202.345 101.296 201.634 103.501 200.211 105.042C198.788 106.583 196.749 107.354 194.094 107.354C191.438 107.354 189.399 106.583 187.976 105.042C186.553 103.501 185.842 101.288 185.842 98.4028C185.842 95.5178 186.553 93.3166 187.976 91.799C189.406 90.2736 191.454 89.5108 194.117 89.5108C196.781 89.5108 198.816 90.2775 200.223 91.8109C201.638 93.3442 202.345 95.5494 202.345 98.4265ZM189.695 98.4265C189.695 100.363 190.063 101.821 190.798 102.801C191.533 103.781 192.631 104.271 194.094 104.271C197.026 104.271 198.492 102.323 198.492 98.4265C198.492 94.5219 197.034 92.5697 194.117 92.5697C192.655 92.5697 191.552 93.0637 190.809 94.0516C190.066 95.0317 189.695 96.49 189.695 98.4265ZM209.711 107.354C208.154 107.354 206.929 106.749 206.036 105.54C205.15 104.331 204.708 102.655 204.708 100.513C204.708 98.3395 205.158 96.6481 206.059 95.4388C206.968 94.2216 208.217 93.613 209.806 93.613C211.473 93.613 212.746 94.2611 213.623 95.5573H213.742C213.56 94.5694 213.469 93.6881 213.469 92.9135V88.6691H217.097V107.117H214.323L213.623 105.398H213.469C212.647 106.702 211.394 107.354 209.711 107.354ZM210.979 104.473C211.904 104.473 212.58 104.204 213.007 103.667C213.442 103.129 213.679 102.216 213.718 100.928V100.537C213.718 99.1141 213.497 98.0945 213.054 97.478C212.62 96.8615 211.908 96.5532 210.92 96.5532C210.114 96.5532 209.486 96.8971 209.035 97.5847C208.592 98.2644 208.371 99.2564 208.371 100.561C208.371 101.865 208.596 102.845 209.047 103.501C209.497 104.149 210.142 104.473 210.979 104.473ZM223.621 100.466C223.621 101.778 223.834 102.77 224.261 103.442C224.696 104.113 225.399 104.449 226.372 104.449C227.336 104.449 228.027 104.117 228.446 103.453C228.873 102.782 229.087 101.786 229.087 100.466C229.087 99.1536 228.873 98.1696 228.446 97.5136C228.02 96.8575 227.32 96.5295 226.348 96.5295C225.384 96.5295 224.688 96.8575 224.261 97.5136C223.834 98.1617 223.621 99.1457 223.621 100.466ZM232.786 100.466C232.786 102.623 232.217 104.311 231.078 105.528C229.94 106.745 228.355 107.354 226.324 107.354C225.052 107.354 223.929 107.077 222.957 106.524C221.985 105.963 221.238 105.161 220.716 104.117C220.195 103.074 219.934 101.857 219.934 100.466C219.934 98.3 220.499 96.6165 221.629 95.4151C222.759 94.2137 224.348 93.613 226.395 93.613C227.668 93.613 228.79 93.8896 229.762 94.4429C230.735 94.9962 231.481 95.7905 232.003 96.8259C232.525 97.8613 232.786 99.0746 232.786 100.466ZM235.124 105.421C235.124 104.758 235.302 104.256 235.658 103.916C236.014 103.576 236.531 103.406 237.211 103.406C237.867 103.406 238.373 103.58 238.729 103.928C239.092 104.275 239.274 104.773 239.274 105.421C239.274 106.046 239.092 106.54 238.729 106.903C238.365 107.259 237.859 107.437 237.211 107.437C236.547 107.437 236.033 107.263 235.67 106.915C235.306 106.56 235.124 106.062 235.124 105.421ZM235.124 95.6285C235.124 94.9646 235.302 94.4627 235.658 94.1228C236.014 93.7829 236.531 93.613 237.211 93.613C237.867 93.613 238.373 93.7869 238.729 94.1346C239.092 94.4824 239.274 94.9804 239.274 95.6285C239.274 96.2687 239.088 96.7666 238.717 97.1223C238.353 97.4701 237.851 97.644 237.211 97.644C236.547 97.644 236.033 97.4701 235.67 97.1223C235.306 96.7745 235.124 96.2766 235.124 95.6285ZM253.638 89.5583C255.298 89.5583 256.633 89.9377 257.645 90.6964C258.665 91.4473 259.174 92.463 259.174 93.7434C259.174 94.6286 258.929 95.419 258.439 96.1146C257.949 96.8022 257.159 97.4187 256.068 97.9641C257.364 98.6596 258.293 99.3868 258.854 100.146C259.423 100.896 259.708 101.722 259.708 102.623C259.708 104.046 259.151 105.192 258.036 106.062C256.922 106.923 255.456 107.354 253.638 107.354C251.741 107.354 250.251 106.951 249.168 106.145C248.085 105.338 247.544 104.196 247.544 102.718C247.544 101.73 247.805 100.853 248.326 100.086C248.856 99.3196 249.702 98.6438 250.863 98.0589C249.875 97.4345 249.164 96.7666 248.729 96.0553C248.295 95.3439 248.077 94.5654 248.077 93.7197C248.077 92.4788 248.591 91.475 249.619 90.7083C250.646 89.9416 251.986 89.5583 253.638 89.5583ZM250.935 102.505C250.935 103.185 251.172 103.714 251.646 104.094C252.12 104.473 252.768 104.663 253.59 104.663C254.499 104.663 255.179 104.469 255.63 104.082C256.08 103.687 256.305 103.169 256.305 102.529C256.305 101.999 256.08 101.505 255.63 101.047C255.187 100.58 254.464 100.086 253.46 99.5646C251.776 100.339 250.935 101.319 250.935 102.505ZM253.614 92.2377C252.99 92.2377 252.484 92.3997 252.096 92.7238C251.717 93.0399 251.527 93.4668 251.527 94.0042C251.527 94.4785 251.678 94.9053 251.978 95.2847C252.286 95.6561 252.839 96.0395 253.638 96.4347C254.412 96.0711 254.954 95.6996 255.262 95.3202C255.57 94.9408 255.724 94.5022 255.724 94.0042C255.724 93.4589 255.527 93.0281 255.132 92.7119C254.736 92.3958 254.231 92.2377 253.614 92.2377ZM263.114 107.117L269.623 92.8898H261.075V89.8072H273.511V92.1073L266.955 107.117H263.114ZM279.597 104.568C279.186 106.164 278.49 108.057 277.51 110.247H274.902C275.415 108.144 275.815 106.16 276.099 104.295H279.419L279.597 104.568ZM283.749 107.117L290.258 92.8898H281.71V89.8072H294.147V92.1073L287.591 107.117H283.749ZM307.203 93.6604C307.203 94.7432 306.875 95.664 306.219 96.4228C305.563 97.1816 304.643 97.7033 303.457 97.9878V98.0589C304.856 98.2328 305.915 98.6596 306.634 99.3394C307.354 100.011 307.713 100.92 307.713 102.066C307.713 103.734 307.109 105.034 305.899 105.967C304.69 106.892 302.963 107.354 300.718 107.354C298.837 107.354 297.169 107.042 295.715 106.417V103.299C296.387 103.639 297.126 103.916 297.932 104.129C298.738 104.343 299.537 104.449 300.327 104.449C301.536 104.449 302.429 104.244 303.006 103.833C303.583 103.422 303.872 102.762 303.872 101.853C303.872 101.039 303.54 100.462 302.876 100.122C302.212 99.782 301.153 99.6121 299.699 99.6121H298.383V96.8022H299.722C301.066 96.8022 302.046 96.6283 302.663 96.2806C303.287 95.9249 303.599 95.3202 303.599 94.4666C303.599 93.1546 302.777 92.4985 301.133 92.4985C300.564 92.4985 299.983 92.5934 299.39 92.7831C298.806 92.9728 298.153 93.3008 297.434 93.7671L295.739 91.2418C297.32 90.1036 299.205 89.5346 301.394 89.5346C303.188 89.5346 304.603 89.8981 305.638 90.6253C306.682 91.3525 307.203 92.3642 307.203 93.6604ZM318.553 107.117H314.889V97.0868L314.925 95.4388L314.984 93.6367C314.375 94.2453 313.953 94.6444 313.716 94.8341L311.724 96.4347L309.957 94.2295L315.541 89.7835H318.553V107.117Z" fill="#030303"/>
<path d="M186.612 156.943H192.007C194.465 156.943 196.247 157.295 197.354 157.998C198.468 158.694 199.026 159.805 199.026 161.33C199.026 162.365 198.781 163.215 198.291 163.879C197.808 164.543 197.164 164.942 196.358 165.076V165.195C197.457 165.44 198.247 165.898 198.729 166.57C199.219 167.242 199.464 168.135 199.464 169.25C199.464 170.831 198.891 172.064 197.745 172.949C196.607 173.834 195.058 174.277 193.098 174.277H186.612V156.943ZM190.288 163.808H192.422C193.418 163.808 194.137 163.654 194.58 163.345C195.03 163.037 195.255 162.527 195.255 161.816C195.255 161.152 195.01 160.678 194.52 160.393C194.038 160.101 193.272 159.955 192.22 159.955H190.288V163.808ZM190.288 166.724V171.242H192.683C193.694 171.242 194.441 171.048 194.923 170.661C195.406 170.273 195.647 169.68 195.647 168.882C195.647 167.444 194.619 166.724 192.564 166.724H190.288ZM202.348 157.595C202.348 156.418 203.004 155.829 204.316 155.829C205.629 155.829 206.285 156.418 206.285 157.595C206.285 158.157 206.119 158.595 205.787 158.911C205.463 159.22 204.972 159.374 204.316 159.374C203.004 159.374 202.348 158.781 202.348 157.595ZM206.119 174.277H202.503V161.022H206.119V174.277ZM213.982 174.514C212.425 174.514 211.2 173.909 210.307 172.7C209.422 171.49 208.979 169.815 208.979 167.673C208.979 165.499 209.43 163.808 210.331 162.599C211.24 161.381 212.488 160.773 214.077 160.773C215.745 160.773 217.017 161.421 217.895 162.717H218.013C217.831 161.729 217.74 160.848 217.74 160.073V155.829H221.368V174.277H218.594L217.895 172.558H217.74C216.918 173.862 215.666 174.514 213.982 174.514ZM215.251 171.633C216.176 171.633 216.851 171.364 217.278 170.827C217.713 170.289 217.95 169.376 217.989 168.088V167.697C217.989 166.274 217.768 165.254 217.326 164.638C216.891 164.021 216.179 163.713 215.191 163.713C214.385 163.713 213.757 164.057 213.306 164.744C212.864 165.424 212.642 166.416 212.642 167.72C212.642 169.024 212.868 170.005 213.318 170.661C213.769 171.309 214.413 171.633 215.251 171.633ZM224.502 172.581C224.502 171.917 224.679 171.415 225.035 171.076C225.391 170.736 225.908 170.566 226.588 170.566C227.244 170.566 227.75 170.74 228.106 171.087C228.469 171.435 228.651 171.933 228.651 172.581C228.651 173.206 228.469 173.7 228.106 174.063C227.742 174.419 227.236 174.597 226.588 174.597C225.924 174.597 225.41 174.423 225.047 174.075C224.683 173.719 224.502 173.221 224.502 172.581ZM224.502 162.788C224.502 162.124 224.679 161.622 225.035 161.283C225.391 160.943 225.908 160.773 226.588 160.773C227.244 160.773 227.75 160.947 228.106 161.294C228.469 161.642 228.651 162.14 228.651 162.788C228.651 163.428 228.465 163.926 228.094 164.282C227.73 164.63 227.228 164.804 226.588 164.804C225.924 164.804 225.41 164.63 225.047 164.282C224.683 163.934 224.502 163.436 224.502 162.788ZM249.014 168.858C249.014 170.115 248.559 171.127 247.651 171.894C246.742 172.652 245.469 173.107 243.833 173.257V175.687H242.209V173.304C240.28 173.265 238.589 172.925 237.134 172.285V169.155C237.822 169.495 238.648 169.795 239.612 170.056C240.584 170.317 241.45 170.471 242.209 170.518V166.843L241.414 166.535C239.849 165.918 238.739 165.25 238.083 164.531C237.435 163.804 237.111 162.907 237.111 161.84C237.111 160.694 237.557 159.753 238.45 159.018C239.351 158.275 240.604 157.825 242.209 157.667V155.853H243.833V157.619C245.643 157.698 247.279 158.062 248.741 158.71L247.627 161.484C246.394 160.978 245.129 160.67 243.833 160.559V164.057C245.374 164.65 246.469 165.163 247.117 165.598C247.773 166.033 248.251 166.511 248.552 167.033C248.86 167.554 249.014 168.163 249.014 168.858ZM245.445 169.036C245.445 168.704 245.311 168.424 245.042 168.195C244.774 167.965 244.37 167.728 243.833 167.483V170.435C244.908 170.254 245.445 169.787 245.445 169.036ZM240.679 161.84C240.679 162.188 240.798 162.476 241.035 162.705C241.28 162.927 241.671 163.156 242.209 163.393V160.607C241.189 160.757 240.679 161.168 240.679 161.84ZM259.83 174.277H256.166V164.247L256.202 162.599L256.261 160.796C255.652 161.405 255.23 161.804 254.993 161.994L253.001 163.594L251.234 161.389L256.818 156.943H259.83V174.277ZM273.562 174.277H269.899V164.247L269.934 162.599L269.993 160.796C269.385 161.405 268.962 161.804 268.725 161.994L266.733 163.594L264.966 161.389L270.551 156.943H273.562V174.277ZM282.706 171.728C282.295 173.324 281.599 175.217 280.619 177.407H278.011C278.525 175.304 278.924 173.32 279.209 171.455H282.528L282.706 171.728ZM285.021 166.914C285.021 163.484 285.744 160.931 287.191 159.255C288.645 157.58 290.819 156.742 293.711 156.742C294.699 156.742 295.474 156.801 296.035 156.92V159.848C295.332 159.69 294.636 159.611 293.949 159.611C292.692 159.611 291.664 159.801 290.866 160.18C290.076 160.559 289.483 161.121 289.088 161.864C288.692 162.606 288.459 163.662 288.388 165.029H288.542C289.325 163.685 290.578 163.014 292.301 163.014C293.85 163.014 295.063 163.5 295.94 164.472C296.818 165.444 297.256 166.788 297.256 168.503C297.256 170.352 296.735 171.818 295.691 172.901C294.648 173.976 293.202 174.514 291.352 174.514C290.072 174.514 288.953 174.217 287.997 173.625C287.048 173.032 286.313 172.166 285.792 171.028C285.278 169.89 285.021 168.519 285.021 166.914ZM291.281 171.585C292.064 171.585 292.664 171.324 293.083 170.803C293.502 170.273 293.711 169.522 293.711 168.55C293.711 167.705 293.514 167.041 293.119 166.558C292.731 166.068 292.143 165.823 291.352 165.823C290.609 165.823 289.973 166.064 289.443 166.547C288.922 167.029 288.661 167.59 288.661 168.23C288.661 169.171 288.906 169.965 289.396 170.613C289.894 171.261 290.522 171.585 291.281 171.585ZM310.894 165.61C310.894 168.637 310.396 170.878 309.4 172.332C308.412 173.787 306.887 174.514 304.824 174.514C302.824 174.514 301.314 173.763 300.295 172.261C299.283 170.759 298.777 168.542 298.777 165.61C298.777 162.551 299.271 160.299 300.259 158.852C301.247 157.398 302.769 156.671 304.824 156.671C306.823 156.671 308.333 157.429 309.353 158.947C310.38 160.465 310.894 162.686 310.894 165.61ZM302.417 165.61C302.417 167.736 302.599 169.262 302.962 170.186C303.334 171.103 303.954 171.562 304.824 171.562C305.677 171.562 306.294 171.095 306.673 170.163C307.053 169.23 307.242 167.712 307.242 165.61C307.242 163.484 307.049 161.958 306.661 161.034C306.282 160.101 305.669 159.635 304.824 159.635C303.962 159.635 303.346 160.101 302.974 161.034C302.603 161.958 302.417 163.484 302.417 165.61ZM324.626 165.61C324.626 168.637 324.128 170.878 323.132 172.332C322.144 173.787 320.619 174.514 318.556 174.514C316.556 174.514 315.047 173.763 314.027 172.261C313.015 170.759 312.509 168.542 312.509 165.61C312.509 162.551 313.003 160.299 313.991 158.852C314.979 157.398 316.501 156.671 318.556 156.671C320.556 156.671 322.065 157.429 323.085 158.947C324.112 160.465 324.626 162.686 324.626 165.61ZM316.149 165.61C316.149 167.736 316.331 169.262 316.695 170.186C317.066 171.103 317.686 171.562 318.556 171.562C319.41 171.562 320.026 171.095 320.405 170.163C320.785 169.23 320.974 167.712 320.974 165.61C320.974 163.484 320.781 161.958 320.394 161.034C320.014 160.101 319.402 159.635 318.556 159.635C317.694 159.635 317.078 160.101 316.706 161.034C316.335 161.958 316.149 163.484 316.149 165.61Z" fill="#030303"/>
<path d="M186.612 207.34V190.007H190.288V204.305H197.318V207.34H186.612ZM202.799 200.689C202.799 202.001 203.012 202.993 203.439 203.665C203.874 204.336 204.577 204.672 205.549 204.672C206.514 204.672 207.205 204.34 207.624 203.676C208.051 203.005 208.264 202.009 208.264 200.689C208.264 199.377 208.051 198.393 207.624 197.737C207.197 197.081 206.498 196.753 205.526 196.753C204.561 196.753 203.866 197.081 203.439 197.737C203.012 198.385 202.799 199.369 202.799 200.689ZM211.964 200.689C211.964 202.846 211.394 204.534 210.256 205.751C209.118 206.968 207.533 207.577 205.502 207.577C204.23 207.577 203.107 207.3 202.135 206.747C201.163 206.186 200.416 205.384 199.894 204.34C199.373 203.297 199.112 202.08 199.112 200.689C199.112 198.523 199.677 196.839 200.807 195.638C201.937 194.437 203.526 193.836 205.573 193.836C206.846 193.836 207.968 194.113 208.94 194.666C209.912 195.219 210.659 196.014 211.181 197.049C211.703 198.084 211.964 199.298 211.964 200.689ZM225.708 207.34L224.688 202.704L223.313 196.847H223.23L220.811 207.34H216.922L213.152 194.085H216.756L218.286 199.954C218.531 201.005 218.78 202.455 219.033 204.305H219.104C219.136 203.704 219.274 202.752 219.519 201.447L219.709 200.44L221.345 194.085H225.328L226.881 200.44C226.913 200.614 226.96 200.87 227.024 201.21C227.095 201.55 227.162 201.914 227.225 202.301C227.288 202.68 227.344 203.056 227.391 203.427C227.447 203.791 227.478 204.083 227.486 204.305H227.557C227.628 203.736 227.755 202.957 227.937 201.969C228.118 200.973 228.249 200.301 228.328 199.954L229.916 194.085H233.461L229.644 207.34H225.708ZM245.596 197.701H246.782C247.944 197.701 248.801 197.507 249.355 197.12C249.908 196.733 250.185 196.124 250.185 195.294C250.185 194.472 249.9 193.887 249.331 193.54C248.77 193.192 247.896 193.018 246.711 193.018H245.596V197.701ZM245.596 200.689V207.34H241.921V190.007H246.972C249.327 190.007 251.07 190.437 252.2 191.299C253.33 192.152 253.895 193.453 253.895 195.199C253.895 196.219 253.615 197.128 253.054 197.926C252.492 198.717 251.698 199.337 250.671 199.788C253.279 203.684 254.978 206.202 255.769 207.34H251.69L247.553 200.689H245.596ZM263.016 196.409C262.249 196.409 261.648 196.654 261.214 197.144C260.779 197.626 260.53 198.314 260.467 199.207H265.541C265.525 198.314 265.292 197.626 264.842 197.144C264.391 196.654 263.782 196.409 263.016 196.409ZM263.526 207.577C261.392 207.577 259.724 206.988 258.522 205.81C257.321 204.633 256.72 202.965 256.72 200.807C256.72 198.586 257.274 196.871 258.38 195.662C259.495 194.445 261.032 193.836 262.992 193.836C264.865 193.836 266.324 194.37 267.367 195.437C268.41 196.504 268.932 197.978 268.932 199.859V201.613H260.384C260.423 202.641 260.728 203.443 261.297 204.02C261.866 204.597 262.664 204.886 263.692 204.886C264.49 204.886 265.245 204.803 265.956 204.637C266.667 204.471 267.41 204.206 268.185 203.842V206.64C267.553 206.957 266.877 207.19 266.158 207.34C265.438 207.498 264.561 207.577 263.526 207.577ZM277.317 204.696C277.949 204.696 278.708 204.558 279.593 204.281V206.972C278.692 207.375 277.586 207.577 276.274 207.577C274.827 207.577 273.772 207.213 273.108 206.486C272.452 205.751 272.124 204.653 272.124 203.19V196.8H270.393V195.271L272.385 194.061L273.428 191.263H275.74V194.085H279.451V196.8H275.74V203.19C275.74 203.704 275.883 204.083 276.167 204.328C276.46 204.573 276.843 204.696 277.317 204.696ZM290.563 207.34L289.864 205.538H289.769C289.16 206.304 288.532 206.838 287.884 207.138C287.244 207.431 286.406 207.577 285.37 207.577C284.098 207.577 283.094 207.213 282.359 206.486C281.632 205.759 281.268 204.724 281.268 203.38C281.268 201.973 281.758 200.938 282.738 200.274C283.726 199.602 285.212 199.23 287.196 199.159L289.496 199.088V198.507C289.496 197.164 288.809 196.492 287.433 196.492C286.374 196.492 285.129 196.812 283.699 197.452L282.501 195.01C284.027 194.211 285.718 193.812 287.576 193.812C289.354 193.812 290.717 194.2 291.666 194.974C292.614 195.749 293.089 196.926 293.089 198.507V207.34H290.563ZM289.496 201.199L288.097 201.246C287.046 201.278 286.264 201.467 285.75 201.815C285.236 202.163 284.979 202.692 284.979 203.404C284.979 204.423 285.564 204.933 286.734 204.933C287.572 204.933 288.24 204.692 288.738 204.21C289.243 203.728 289.496 203.088 289.496 202.289V201.199ZM296.53 190.659C296.53 189.481 297.186 188.892 298.498 188.892C299.81 188.892 300.466 189.481 300.466 190.659C300.466 191.22 300.3 191.658 299.968 191.975C299.644 192.283 299.154 192.437 298.498 192.437C297.186 192.437 296.53 191.844 296.53 190.659ZM300.3 207.34H296.684V194.085H300.3V207.34ZM307.583 207.34H303.967V188.892H307.583V207.34ZM310.74 205.644C310.74 204.981 310.918 204.479 311.273 204.139C311.629 203.799 312.147 203.629 312.826 203.629C313.482 203.629 313.988 203.803 314.344 204.151C314.707 204.498 314.889 204.996 314.889 205.644C314.889 206.269 314.707 206.763 314.344 207.126C313.98 207.482 313.474 207.66 312.826 207.66C312.162 207.66 311.649 207.486 311.285 207.138C310.921 206.783 310.74 206.285 310.74 205.644ZM310.74 195.852C310.74 195.188 310.918 194.686 311.273 194.346C311.629 194.006 312.147 193.836 312.826 193.836C313.482 193.836 313.988 194.01 314.344 194.358C314.707 194.705 314.889 195.203 314.889 195.852C314.889 196.492 314.703 196.99 314.332 197.345C313.968 197.693 313.467 197.867 312.826 197.867C312.162 197.867 311.649 197.693 311.285 197.345C310.921 196.998 310.74 196.5 310.74 195.852ZM335.252 201.922C335.252 203.178 334.798 204.19 333.889 204.957C332.98 205.716 331.707 206.17 330.071 206.32V208.751H328.447V206.368C326.518 206.328 324.827 205.988 323.373 205.348V202.218C324.06 202.558 324.886 202.858 325.85 203.119C326.823 203.38 327.688 203.534 328.447 203.582V199.906L327.653 199.598C326.088 198.981 324.977 198.314 324.321 197.594C323.673 196.867 323.349 195.97 323.349 194.903C323.349 193.757 323.795 192.816 324.689 192.081C325.59 191.338 326.842 190.888 328.447 190.73V188.916H330.071V190.682C331.881 190.761 333.517 191.125 334.979 191.773L333.865 194.547C332.632 194.042 331.367 193.733 330.071 193.623V197.12C331.612 197.713 332.707 198.227 333.355 198.661C334.011 199.096 334.489 199.574 334.79 200.096C335.098 200.618 335.252 201.226 335.252 201.922ZM331.684 202.1C331.684 201.768 331.549 201.487 331.28 201.258C331.012 201.029 330.609 200.791 330.071 200.546V203.499C331.146 203.317 331.684 202.85 331.684 202.1ZM326.917 194.903C326.917 195.251 327.036 195.539 327.273 195.769C327.518 195.99 327.909 196.219 328.447 196.456V193.67C327.427 193.82 326.917 194.231 326.917 194.903ZM346.068 207.34H342.404V197.31L342.44 195.662L342.499 193.86C341.891 194.468 341.468 194.867 341.231 195.057L339.239 196.658L337.472 194.453L343.056 190.007H346.068V207.34ZM362.788 197.405C362.788 200.819 362.069 203.368 360.63 205.052C359.192 206.735 357.014 207.577 354.097 207.577C353.07 207.577 352.291 207.522 351.762 207.411V204.471C352.426 204.637 353.121 204.72 353.849 204.72C355.074 204.72 356.081 204.542 356.872 204.186C357.662 203.823 358.267 203.257 358.686 202.491C359.105 201.716 359.346 200.653 359.409 199.302H359.267C358.808 200.045 358.279 200.566 357.678 200.867C357.077 201.167 356.326 201.317 355.425 201.317C353.916 201.317 352.726 200.835 351.857 199.871C350.987 198.898 350.553 197.551 350.553 195.828C350.553 193.97 351.078 192.504 352.129 191.429C353.189 190.346 354.627 189.805 356.445 189.805C357.725 189.805 358.844 190.105 359.8 190.706C360.764 191.307 361.503 192.18 362.017 193.326C362.531 194.464 362.788 195.824 362.788 197.405ZM356.516 192.745C355.757 192.745 355.165 193.006 354.738 193.528C354.311 194.049 354.097 194.8 354.097 195.78C354.097 196.618 354.291 197.282 354.678 197.772C355.066 198.262 355.655 198.507 356.445 198.507C357.188 198.507 357.824 198.266 358.354 197.784C358.883 197.294 359.148 196.733 359.148 196.1C359.148 195.16 358.899 194.366 358.401 193.717C357.911 193.069 357.283 192.745 356.516 192.745ZM368.944 204.791C368.533 206.387 367.838 208.28 366.858 210.47H364.249C364.763 208.367 365.162 206.383 365.447 204.518H368.766L368.944 204.791ZM383.886 203.748H381.799V207.34H378.219V203.748H370.821V201.199L378.42 190.007H381.799V200.902H383.886V203.748ZM378.219 200.902V197.962C378.219 197.472 378.238 196.76 378.278 195.828C378.317 194.895 378.349 194.354 378.373 194.204H378.278C377.986 194.852 377.634 195.484 377.223 196.1L374.045 200.902H378.219ZM386.829 207.34L393.338 193.113H384.79V190.03H397.227V192.33L390.671 207.34H386.829ZM410.864 198.673C410.864 201.7 410.366 203.941 409.37 205.395C408.382 206.85 406.857 207.577 404.794 207.577C402.794 207.577 401.285 206.826 400.265 205.324C399.253 203.823 398.748 201.606 398.748 198.673C398.748 195.614 399.242 193.362 400.23 191.915C401.218 190.461 402.739 189.734 404.794 189.734C406.794 189.734 408.303 190.493 409.323 192.01C410.351 193.528 410.864 195.749 410.864 198.673ZM402.387 198.673C402.387 200.799 402.569 202.325 402.933 203.25C403.304 204.166 403.925 204.625 404.794 204.625C405.648 204.625 406.264 204.159 406.644 203.226C407.023 202.293 407.213 200.776 407.213 198.673C407.213 196.547 407.019 195.022 406.632 194.097C406.252 193.164 405.64 192.698 404.794 192.698C403.933 192.698 403.316 193.164 402.945 194.097C402.573 195.022 402.387 196.547 402.387 198.673Z" fill="#030303"/>
<path d="M190.288 231.281H191.473C192.635 231.281 193.493 231.087 194.046 230.7C194.599 230.313 194.876 229.704 194.876 228.874C194.876 228.052 194.591 227.467 194.022 227.119C193.461 226.772 192.588 226.598 191.402 226.598H190.288V231.281ZM190.288 234.269V240.92H186.612V223.586H191.663C194.018 223.586 195.761 224.017 196.892 224.879C198.022 225.732 198.587 227.032 198.587 228.779C198.587 229.799 198.306 230.708 197.745 231.506C197.184 232.297 196.39 232.917 195.362 233.367C197.97 237.264 199.67 239.782 200.46 240.92H196.382L192.244 234.269H190.288ZM209.841 240.92L205.668 227.321H205.561C205.712 230.087 205.787 231.933 205.787 232.858V240.92H202.503V223.586H207.506L211.608 236.841H211.679L216.03 223.586H221.033V240.92H217.607V232.715C217.607 232.328 217.611 231.882 217.619 231.376C217.635 230.87 217.69 229.526 217.785 227.345H217.678L213.208 240.92H209.841ZM224.475 239.224C224.475 238.56 224.652 238.058 225.008 237.719C225.364 237.379 225.882 237.209 226.561 237.209C227.217 237.209 227.723 237.383 228.079 237.73C228.442 238.078 228.624 238.576 228.624 239.224C228.624 239.849 228.442 240.343 228.079 240.706C227.715 241.062 227.209 241.24 226.561 241.24C225.897 241.24 225.384 241.066 225.02 240.718C224.656 240.362 224.475 239.865 224.475 239.224ZM224.475 229.431C224.475 228.767 224.652 228.266 225.008 227.926C225.364 227.586 225.882 227.416 226.561 227.416C227.217 227.416 227.723 227.59 228.079 227.937C228.442 228.285 228.624 228.783 228.624 229.431C228.624 230.072 228.438 230.569 228.067 230.925C227.703 231.273 227.201 231.447 226.561 231.447C225.897 231.447 225.384 231.273 225.02 230.925C224.656 230.577 224.475 230.079 224.475 229.431ZM243.616 230.724L247.232 223.586H251.192L245.442 234.174V240.92H241.791V234.292L236.04 223.586H240.024L243.616 230.724Z" fill="#030303"/>
</g>
<g opacity="0.717759">
<path d="M509.887 35.7665C512.809 41.3939 517.883 45.6492 524.176 47.7449C526.758 48.6049 529.358 49.1089 531.905 49.2424C535.84 49.4486 539.169 48.759 541.77 47.8371C538.865 56.3198 530.979 71.4487 519.145 72.5064C518.707 72.5455 518.03 72.4293 518.03 72.4293L517.979 73.7314L517.082 85.8853C517.082 85.8853 518.822 86.1481 519.699 86.194C533.797 86.9329 548.498 73.5618 555.449 53.6777C559.527 42.0122 561.475 24.2546 553.542 12.5954C549.105 6.07365 542.325 2.35823 533.394 1.55568C533.357 1.55269 533.322 1.54974 533.284 1.54775C522.242 0.969105 512.076 7.58317 508.562 17.6304C506.466 23.6371 506.936 30.0774 509.887 35.7665Z" fill="#8E8A8A"/>
<path d="M449.986 35.7665C452.907 41.3939 457.981 45.6492 464.275 47.7449C466.856 48.6049 469.456 49.1089 472.003 49.2424C475.938 49.4486 479.268 48.759 481.869 47.8371C478.963 56.3198 471.077 71.4487 459.243 72.5064C458.806 72.5455 458.129 72.4293 458.129 72.4293L458.078 73.7314L457.18 85.8853C457.18 85.8853 458.921 86.1481 459.797 86.194C473.895 86.9329 488.596 73.5618 495.547 53.6777C499.626 42.0122 501.573 24.2546 493.641 12.5954C489.204 6.07365 482.423 2.35823 473.492 1.55568C473.456 1.55269 473.42 1.54974 473.382 1.54775C462.341 0.969105 452.174 7.58317 448.661 17.6304C446.564 23.6371 447.034 30.0774 449.986 35.7665Z" fill="#8E8A8A"/>
</g>
<defs>
<clipPath id="clip0">
<rect width="393" height="245" fill="white" transform="translate(149.301 249.533)"/>
</clipPath>
<clipPath id="clip1">
<rect width="331" height="218" fill="white" transform="translate(175.649 32.0386)"/>
</clipPath>
</defs>
</svg>
